<?xml version="1.0" encoding="UTF-8"?>
<svg version="1.1" xmlns="http://www.w3.org/2000/svg" width="1920" height="1080">
<path d="M0 0 C633.6 0 1267.2 0 1920 0 C1920 356.4 1920 712.8 1920 1080 C1286.4 1080 652.8 1080 0 1080 C0 723.6 0 367.2 0 0 Z " fill="#2F5A84" transform="translate(0,0)"/>
<path d="M0 0 C1.73198667 -0.00269976 3.46397185 -0.0065862 5.19595337 -0.01159668 C8.81535355 -0.01747214 12.43435712 -0.00899434 16.05371094 0.00976562 C20.6656178 0.03251991 25.27659151 0.01944231 29.88846397 -0.00452423 C33.46270619 -0.01906467 37.03673179 -0.01433814 40.61098099 -0.00401306 C42.31003559 -0.0013667 44.00911061 -0.00454094 45.70814133 -0.01393127 C58.02645701 -0.06707319 69.19127278 0.59816143 78.5703125 9.53515625 C84.27438037 16.40963427 85.3738121 24.45684021 85.38769531 33.11621094 C85.39514267 34.23678894 85.39514267 34.23678894 85.40274048 35.38000488 C85.41729793 37.84188777 85.4241538 40.30370621 85.4296875 42.765625 C85.43544478 44.48569743 85.44120243 46.20576986 85.44696045 47.92584229 C85.45745258 51.53031715 85.46330675 55.13476984 85.46679688 58.73925781 C85.47227404 63.34007421 85.49629294 67.94059356 85.52476883 72.54131699 C85.54346676 76.09483678 85.54860463 79.64828608 85.55013275 83.20185089 C85.5531443 84.89699169 85.56112178 86.5921317 85.57431793 88.28722382 C85.65638682 99.64072053 85.45164415 109.45402273 78.0390625 118.73828125 C71.4797463 125.22691516 64.15899552 126.6763843 55.28027344 126.70825195 C54.48299332 126.71482315 53.6857132 126.72139435 52.86427307 126.72816467 C50.22982685 126.74784964 47.59543751 126.75954976 44.9609375 126.76953125 C44.05888832 126.77360678 43.15683914 126.7776823 42.22745514 126.78188133 C37.45258312 126.80272194 32.67773966 126.81703216 27.90283203 126.82641602 C22.98232819 126.83747424 18.06227732 126.87187311 13.14193344 126.91158772 C9.3482583 126.93778721 5.55469057 126.94611082 1.76093292 126.94969749 C-0.05227466 126.95455508 -1.86547771 126.96614539 -3.6785965 126.98473549 C-6.22261531 127.0091977 -8.76546883 127.0081493 -11.30957031 127.0012207 C-12.42116768 127.02043579 -12.42116768 127.02043579 -13.55522156 127.04003906 C-21.69620358 126.95969487 -28.01327862 123.16049618 -33.7734375 117.53125 C-38.84002286 110.73135913 -40.07807967 102.91383134 -40.0480957 94.60571289 C-40.05320663 93.85822281 -40.05831757 93.11073273 -40.06358337 92.34059143 C-40.07736635 89.89494591 -40.07653134 87.44958575 -40.07421875 85.00390625 C-40.07811161 83.2881205 -40.08244749 81.5723357 -40.08720398 79.85655212 C-40.09464171 76.2699775 -40.09439253 72.68350136 -40.08911133 69.09692383 C-40.083317 64.51970753 -40.10025867 59.94289593 -40.123456 55.3657465 C-40.13824562 51.82508521 -40.139058 48.28452025 -40.13594627 44.74383354 C-40.13645676 43.05707434 -40.14164287 41.37030935 -40.15175819 39.6835804 C-40.21064573 28.49293171 -40.10054749 18.74247399 -32.7734375 9.53125 C-23.14261126 0.12439647 -12.80626076 -0.07058357 0 0 Z " fill="#FBFDFD" transform="translate(1005.7734375,427.46875)"/>
<path d="M0 0 C26.46225464 0 26.46225464 0 40.125 6.1875 C41.49836571 6.77531746 42.87337871 7.35930093 44.25 7.93945312 C46.93125054 9.07413213 49.60367841 10.22645498 52.27075195 11.39404297 C57.77391003 13.78650591 63.38456192 15.88796687 69 18 C71.76260324 19.04976326 74.5237997 20.10321243 77.28515625 21.15625 C78.73760666 21.70969722 80.19008081 22.26308214 81.64257812 22.81640625 C82.37033447 23.09371582 83.09809082 23.37102539 83.84790039 23.65673828 C85.3258639 24.2195082 86.80405473 24.78168152 88.2824707 25.34326172 C90.47153738 26.17500557 92.65966412 27.00918415 94.84765625 27.84375 C95.8091433 28.20805115 95.8091433 28.20805115 96.79005432 28.57971191 C100.82098651 30.1201542 104.80870734 31.74701503 108.78833008 33.41577148 C114.66851949 35.87761902 120.59133804 38.21086482 126.5390625 40.50390625 C128.10942764 41.11165138 128.10942764 41.11165138 129.71151733 41.73167419 C133.01545107 43.0100712 136.32017607 44.28640623 139.625 45.5625 C142.93682993 46.84251018 146.24848359 48.12297343 149.55990601 49.40403748 C151.60767441 50.1961182 153.65569234 50.98755427 155.70401001 51.7782135 C158.47104453 52.84782709 161.23621016 53.92203169 164 55 C164.95332214 55.37156219 165.90664429 55.74312439 166.88885498 56.12594604 C167.79742249 56.48391266 168.70598999 56.84187927 169.64208984 57.21069336 C170.45688812 57.53089951 171.2716864 57.85110565 172.11117554 58.18101501 C174 59 174 59 175 60 C175.09326716 61.56547048 175.11745582 63.13512772 175.11352539 64.70336914 C175.11344986 65.70433121 175.11337433 66.70529327 175.11329651 67.73658752 C175.10813522 68.8251152 175.10297394 69.91364288 175.09765625 71.03515625 C175.09553383 72.6977372 175.09553383 72.6977372 175.09336853 74.39390564 C175.08775033 77.95013069 175.07519475 81.50629383 175.0625 85.0625 C175.05748734 87.46679597 175.05292403 89.87109292 175.04882812 92.27539062 C175.03777499 98.18361504 175.02101917 104.0918031 175 110 C163.59748925 110.40562291 153.62682768 110.70473885 143 106 C141.99928467 105.59209229 140.99856934 105.18418457 139.9675293 104.76391602 C137.93513209 103.9326931 135.90845149 103.08733421 133.88818359 102.22705078 C130.36931764 100.73205329 126.82148237 99.31901902 123.26708984 97.91113281 C120.82896339 96.94403034 118.39677246 95.96303652 115.96484375 94.98046875 C109.7846619 92.49874141 103.55831422 90.13967016 97.32739258 87.78881836 C88.12992043 84.31409607 79.02408169 80.6305323 69.9609375 76.8203125 C64.60566225 74.59581355 59.18660585 72.55209193 53.75416565 70.52560425 C45.19489903 67.33199269 36.65979854 64.075145 28.12329102 60.82128906 C25.27839647 59.73700197 22.43315783 58.65362128 19.58789062 57.5703125 C17.76300048 56.87505343 15.93812994 56.17974287 14.11328125 55.484375 C13.27058182 55.16353943 12.42788239 54.84270386 11.55964661 54.512146 C10.77079575 54.21133118 9.98194489 53.91051636 9.16918945 53.60058594 C8.4824263 53.33888611 7.79566315 53.07718628 7.08808899 52.80755615 C4.71788207 51.89089255 2.35952819 50.94381128 0 50 C0 33.5 0 17 0 0 Z " fill="#FCFDFD" transform="translate(577,449)"/>
<path d="M0 0 C27.48504588 0 27.48504588 0 37.5625 4.75 C39.93792534 5.77157232 42.31426239 6.79102673 44.69140625 7.80859375 C45.89168457 8.3382373 47.09196289 8.86788086 48.32861328 9.41357422 C53.84861574 11.79879672 59.45929132 13.93916837 65.07763672 16.07879639 C68.34647988 17.32640763 71.60837257 18.59195443 74.87109375 19.85546875 C76.21597364 20.37551267 77.56086304 20.89553201 78.90576172 21.41552734 C100.49816723 29.76898226 122.06408409 38.19067407 143.625 46.625 C145.11980392 47.20957977 145.11980392 47.20957977 146.64480591 47.80596924 C149.50556669 48.9248864 152.36610391 50.04437306 155.2265625 51.1640625 C156.48697105 51.65700806 156.48697105 51.65700806 157.77284241 52.15991211 C163.52645776 54.41325527 169.26245122 56.70498049 175 59 C175 75.83 175 92.66 175 110 C160.06491311 110 151.38066314 109.25616696 138.4375 103.75 C136.97192568 103.15453421 135.50512488 102.56207808 134.03710938 101.97265625 C131.22777366 100.83892733 128.42618797 99.68912314 125.6315918 98.51953125 C114.77466421 93.97677379 103.77649901 89.77577733 92.8125 85.5 C91.91170715 85.14850891 91.01091431 84.79701782 90.08282471 84.43487549 C80.70660439 80.77632288 71.32870206 77.12224178 61.94140625 73.4921875 C61.2461232 73.22331726 60.55084015 72.95444702 59.83448792 72.6774292 C56.64395867 71.44409502 53.45283873 70.21232974 50.26098633 68.98242188 C41.81307172 65.72188607 33.4025862 62.37500921 25 59 C22.68895656 58.07513475 20.37776408 57.15064177 18.06640625 56.2265625 C12.04427083 53.81770833 6.02213542 51.40885417 0 49 C0 32.83 0 16.66 0 0 Z " fill="#FCFDFD" transform="translate(577,591)"/>
<path d="M0 0 C2.04836472 0.00747048 4.09673663 0.01315959 6.14511108 0.01715088 C11.50787466 0.03234364 16.87019738 0.07157019 22.23278809 0.1159668 C27.71632933 0.15705725 33.19994256 0.1751912 38.68359375 0.1953125 C49.42206753 0.23807098 60.1602157 0.30624458 70.8984375 0.390625 C71.00498769 3.13123865 71.08291879 5.86769039 71.14453125 8.609375 C71.17752319 9.38249023 71.21051514 10.15560547 71.24450684 10.95214844 C71.31026182 14.85152365 71.30307865 16.79715132 69.05273438 20.09765625 C67.08359432 21.78549058 65.15967957 23.12853641 62.8984375 24.390625 C62.4034375 24.885625 62.4034375 24.885625 61.8984375 25.390625 C59.71127477 25.49887917 57.52062096 25.53693325 55.33081055 25.54833984 C54.64458618 25.55342056 53.95836182 25.55850128 53.25134277 25.56373596 C51.75626096 25.5744615 50.26116287 25.58307306 48.76605797 25.58985519 C46.39984538 25.60161374 44.03381785 25.62105924 41.66767883 25.64297485 C34.9384273 25.70468763 28.20919268 25.75862378 21.47973633 25.79199219 C17.3676263 25.81293464 13.25584989 25.84823784 9.14393044 25.89274979 C7.57589458 25.90691778 6.00779965 25.91563404 4.43970299 25.91880417 C2.24419642 25.92371147 0.04957487 25.94686415 -2.14575195 25.97412109 C-3.39516068 25.98220795 -4.6445694 25.9902948 -5.93183899 25.99862671 C-9.31747375 26.41732665 -10.74971338 26.95326843 -13.1015625 29.390625 C-13.62375142 32.25492954 -13.62375142 32.25492954 -13.4140625 35.390625 C-13.38957031 36.4425 -13.36507812 37.494375 -13.33984375 38.578125 C-13.20583217 41.46950145 -13.20583217 41.46950145 -12.1015625 44.390625 C-5.44195318 47.5291851 2.42960764 48.26300145 9.64453125 49.29296875 C11.88609834 49.62935321 14.12763385 49.9659482 16.36914062 50.30273438 C19.85498872 50.81767527 23.34132586 51.32890811 26.82836914 51.83569336 C30.22696711 52.33243549 33.62323331 52.84327033 37.01953125 53.35546875 C38.04694931 53.50040268 39.07436737 53.64533661 40.13291931 53.79466248 C50.79995117 55.41618441 60.95076565 58.21282887 68.5859375 66.203125 C74.40183164 74.21962773 74.38982953 80.97806364 74.3359375 90.703125 C74.35591797 91.97091797 74.37589844 93.23871094 74.39648438 94.54492188 C74.39186401 103.46685286 73.48054732 110.872588 67.8203125 118.01171875 C67.10359375 118.61113281 66.386875 119.21054687 65.6484375 119.828125 C64.58882812 120.75431641 64.58882812 120.75431641 63.5078125 121.69921875 C56.8639095 126.00582055 50.8929948 126.82697127 43.17773438 126.73120117 C42.24022339 126.73163925 41.3027124 126.73207733 40.33679199 126.73252869 C37.26337254 126.73045239 34.19051069 126.70717616 31.1171875 126.68359375 C28.9762807 126.67799368 26.83537004 126.67372552 24.69445801 126.67073059 C19.07858538 126.65931427 13.46294807 126.62987471 7.84716797 126.59661865 C2.10908185 126.56584844 -3.62904254 126.55221042 -9.3671875 126.53710938 C-20.61209882 126.50500191 -31.85677421 126.4522602 -43.1015625 126.390625 C-43.1015625 118.140625 -43.1015625 109.890625 -43.1015625 101.390625 C-40.57266357 101.3812793 -38.04376465 101.37193359 -35.43823242 101.36230469 C-27.09209908 101.32857009 -18.74621394 101.27304107 -10.40027905 101.20672226 C-5.33902355 101.16717655 -0.27794389 101.13502299 4.78344727 101.11962891 C9.66603652 101.1045089 14.54814261 101.07014677 19.4305172 101.02231598 C21.29523207 101.00745396 23.1600159 100.99958124 25.02478981 100.99874115 C27.63269474 100.99638416 30.23925047 100.96940868 32.84692383 100.93652344 C33.62160004 100.9415538 34.39627625 100.94658417 35.19442749 100.95176697 C39.45552609 100.87609223 39.45552609 100.87609223 42.87236023 98.53839111 C44.2247772 95.70753672 44.36739741 93.4592944 44.3984375 90.328125 C44.429375 89.28527344 44.4603125 88.24242187 44.4921875 87.16796875 C44.18488091 84.2485022 44.18488091 84.2485022 41.8059082 82.81103516 C38.44418723 81.16870644 35.47244029 80.52523513 31.78515625 79.88671875 C31.09201828 79.76469589 30.39888031 79.64267303 29.68473816 79.51695251 C20.22963129 77.87987471 10.72989447 76.47976601 1.2355957 75.09106445 C-28.27684445 70.75572232 -28.27684445 70.75572232 -37.1015625 62.390625 C-43.19745231 53.96481576 -43.33309518 46.391938 -43.4140625 36.265625 C-43.44306641 35.0796875 -43.47207031 33.89375 -43.50195312 32.671875 C-43.56472451 23.9225094 -42.34086922 17.07276703 -37.3125 9.8046875 C-36.70664062 9.21429688 -36.10078125 8.62390625 -35.4765625 8.015625 C-34.88617187 7.40976562 -34.29578125 6.80390625 -33.6875 6.1796875 C-23.23062544 -1.05482692 -12.20419992 -0.13110656 0 0 Z " fill="#FBFDFD" transform="translate(871.1015625,427.609375)"/>
<path d="M0 0 C0 16.5 0 33 0 50 C-11.385 54.455 -11.385 54.455 -23 59 C-28.88976115 61.32507526 -28.88976115 61.32507526 -34.77807617 63.65380859 C-39.54112026 65.53837346 -44.3098616 67.40841856 -49.07868958 69.27828979 C-53.1205004 70.86435914 -57.15872981 72.45896769 -61.19287109 74.06445312 C-65.64797002 75.83735356 -70.10854953 77.59580326 -74.57275391 79.34564209 C-76.3057449 80.02787582 -78.03674148 80.71519922 -79.765625 81.40777588 C-82.18631443 82.37655674 -84.6135103 83.32690311 -87.04296875 84.2734375 C-87.76030685 84.5654303 -88.47764496 84.8574231 -89.21672058 85.15826416 C-95.79433033 87.68100016 -100.11877618 86.51290853 -106.46484375 84.03125 C-107.5000415 83.62898193 -108.53523926 83.22671387 -109.60180664 82.81225586 C-110.70258545 82.37921143 -111.80336426 81.94616699 -112.9375 81.5 C-114.09048584 81.0572876 -115.24347168 80.6145752 -116.43139648 80.15844727 C-121.99393292 78.01314268 -127.50383295 75.80825049 -132.9453125 73.37109375 C-147.07232571 67.17347563 -159.60065515 65.5928573 -175 66 C-175 64.02 -175 62.04 -175 60 C-164.19336598 55.39817849 -153.25324398 51.14493685 -142.3125 46.875 C-140.27863011 46.08011835 -138.24477629 45.28519558 -136.2109375 44.49023438 C-125.71226677 40.38884154 -115.20830192 36.30119851 -104.69921875 32.2265625 C-103.69190704 31.83574997 -102.68459534 31.44493744 -101.64675903 31.0422821 C-96.56237935 29.07064005 -91.47571896 27.10524436 -86.38476562 25.15063477 C-77.07374753 21.56880647 -67.79058314 17.94452585 -58.58291626 14.10342407 C-54.48050297 12.39383488 -50.36723483 10.71122555 -46.25341797 9.02929688 C-44.33428714 8.23526167 -42.42066882 7.42773055 -40.51367188 6.60498047 C-39.61712891 6.21842285 -38.72058594 5.83186523 -37.796875 5.43359375 C-37.02351807 5.09489258 -36.25016113 4.75619141 -35.45336914 4.40722656 C-21.63717189 -0.8940068 -16.59310391 0 0 0 Z " fill="#FCFDFD" transform="translate(752,378)"/>
<path d="M0 0 C32.67 0 65.34 0 99 0 C99 17 99 17 95.89648438 22.01367188 C90.13774195 26.53276823 83.66409068 26.00131178 76.65625 25.78125 C75.27766219 25.76630337 73.89903148 25.75492779 72.52038574 25.74694824 C68.91564764 25.71660067 65.31354516 25.63820289 61.70983887 25.54931641 C58.02307425 25.46703983 54.33586513 25.43040823 50.6484375 25.390625 C43.42997457 25.30942744 36.21871985 25.15286701 29 25 C29 35.23 29 45.46 29 56 C45.5 56 62 56 79 56 C79 64.25 79 72.5 79 81 C62.5 81 46 81 29 81 C29 96.18 29 111.36 29 127 C19.43 127 9.86 127 0 127 C0 85.09 0 43.18 0 0 Z " fill="#FBFDFD" transform="translate(1112,428)"/>
<path d="M0 0 C40.59 0 81.18 0 123 0 C123 5.61 123 11.22 123 17 C120.36 19.64 117.72 22.28 115 25 C102.13 25 89.26 25 76 25 C76 58.66 76 92.32 76 127 C66.43 127 56.86 127 47 127 C47 93.34 47 59.68 47 25 C31.49 25 15.98 25 0 25 C0 16.75 0 8.5 0 0 Z " fill="#FBFDFD" transform="translate(1219,428)"/>
<path d="M0 0 C0.8707164 0.3418634 1.7414328 0.68372681 2.63853455 1.03594971 C5.41616644 2.12786126 8.19054764 3.22776923 10.96484375 4.328125 C12.80251825 5.05263177 14.64040702 5.77659528 16.47851562 6.5 C17.82231041 7.02940437 17.82231041 7.02940437 19.19325256 7.56950378 C20.97457305 8.27060524 22.7563393 8.97057524 24.53855896 9.66938782 C28.28352355 11.13978506 32.02147711 12.61716035 35.72875977 14.18041992 C42.53485813 16.98517773 48.35575499 18.34010494 55.71484375 18.390625 C56.61009766 18.41576172 57.50535156 18.44089844 58.42773438 18.46679688 C60.58548535 18.52449075 62.74395141 18.5544537 64.90234375 18.578125 C64.84350586 20.87817383 64.84350586 20.87817383 63.90234375 23.578125 C61.49405723 24.93553709 59.41895212 25.86216187 56.84375 26.77734375 C56.11610947 27.05407928 55.38846893 27.33081482 54.63877869 27.61593628 C52.25407664 28.51801381 49.85995819 29.39161384 47.46484375 30.265625 C45.81956885 30.88270512 44.17503972 31.50177719 42.53125 32.12280273 C39.22382578 33.3694754 35.91284981 34.60582782 32.59814453 35.83300781 C26.17783442 38.2127354 19.79064194 40.67636878 13.40234375 43.140625 C12.40404541 43.52114014 11.40574707 43.90165527 10.37719727 44.29370117 C2.56816792 47.27742402 -5.14119143 50.47708212 -12.83740234 53.73950195 C-15.39877278 54.82198872 -17.96617066 55.88885944 -20.53515625 56.953125 C-21.39302734 57.32050781 -22.25089844 57.68789063 -23.13476562 58.06640625 C-23.96685547 58.40800781 -24.79894531 58.74960937 -25.65625 59.1015625 C-26.39157959 59.41013184 -27.12690918 59.71870117 -27.88452148 60.03662109 C-31.90906521 61.02133571 -35.3972649 59.58596512 -39.1171875 58.046875 C-39.88071533 57.73516357 -40.64424316 57.42345215 -41.4309082 57.10229492 C-42.24906006 56.76431885 -43.06721191 56.42634277 -43.91015625 56.078125 C-52.86754045 52.43056068 -61.8914596 48.99188317 -70.9621582 45.63671875 C-71.92081787 45.2809375 -72.87947754 44.92515625 -73.8671875 44.55859375 C-74.78250244 44.22174561 -75.69781738 43.88489746 -76.64086914 43.5378418 C-79.09765625 42.578125 -79.09765625 42.578125 -82.51953125 40.859375 C-87.80348837 38.96730302 -92.96163233 39.00639553 -98.53515625 38.890625 C-99.64826172 38.85646484 -100.76136719 38.82230469 -101.90820312 38.78710938 C-104.63792008 38.70510071 -107.36733485 38.63579663 -110.09765625 38.578125 C-110.09765625 36.598125 -110.09765625 34.618125 -110.09765625 32.578125 C-109.12755615 32.20115479 -108.15745605 31.82418457 -107.15795898 31.43579102 C-103.44696835 29.99364954 -99.73609197 28.55121427 -96.02526855 27.10864258 C-94.36634833 26.46374639 -92.7074128 25.81888956 -91.04846191 25.17407227 C-81.14239806 21.32341192 -71.24052802 17.46258013 -61.34765625 13.578125 C-54.60204088 10.93014637 -47.8441275 8.32543503 -41.04052734 5.82983398 C-37.28169517 4.43938751 -33.57657942 2.95420148 -29.8828125 1.3984375 C-28.98522217 1.02468994 -28.08763184 0.65094238 -27.1628418 0.26586914 C-25.41030302 -0.46717844 -23.66272004 -1.2122254 -21.92114258 -1.97094727 C-21.12087646 -2.30408936 -20.32061035 -2.63723145 -19.49609375 -2.98046875 C-18.79145996 -3.28267334 -18.08682617 -3.58487793 -17.36083984 -3.89624023 C-11.37188512 -5.28720243 -5.47701359 -2.18485561 0 0 Z " fill="#F2F3F3" transform="translate(687.09765625,546.421875)"/>
<path d="M0 0 C1.47216728 -0.01441132 1.47216728 -0.01441132 2.97407532 -0.02911377 C4.0334581 -0.03336365 5.09284088 -0.03761353 6.18432617 -0.04199219 C7.82131721 -0.0505423 7.82131721 -0.0505423 9.49137878 -0.05926514 C11.80218537 -0.06871582 14.11300543 -0.07524939 16.42382812 -0.07910156 C19.9529584 -0.08880031 23.48150464 -0.11982091 27.01049805 -0.15136719 C29.2559373 -0.15789803 31.50138071 -0.16314818 33.74682617 -0.16699219 C34.80013626 -0.17933899 35.85344635 -0.19168579 36.93867493 -0.20440674 C42.39766444 -0.18787334 46.53456633 -0.075869 51.16479492 3.16113281 C54.2246048 6.41862599 54.54301362 8.70795496 54.55297852 13.11962891 C54.562435 14.3212265 54.57189148 15.5228241 54.58163452 16.76083374 C54.57556183 18.05566681 54.56948914 19.35049988 54.56323242 20.68457031 C54.56525474 22.03211627 54.56816749 23.37966115 54.57192993 24.72720337 C54.57634896 27.55001252 54.56993822 30.37253655 54.5559082 33.1953125 C54.53884896 36.80222575 54.54863871 40.40846765 54.5666256 44.01535606 C54.57750321 46.79846182 54.57399844 49.58141035 54.56624222 52.36452103 C54.5632842 54.33753141 54.57235229 56.31054805 54.58163452 58.28353882 C54.5674498 60.09539169 54.5674498 60.09539169 54.55297852 61.94384766 C54.54939835 63.53125259 54.54939835 63.53125259 54.54574585 65.15072632 C54.09472204 68.71487309 53.02541856 71.09996807 51.16479492 74.16113281 C47.85005588 76.37095884 46.80669474 76.4168213 42.9465332 76.43579102 C41.88177765 76.44532303 40.81702209 76.45485504 39.72000122 76.4646759 C38.56998627 76.4637645 37.41997131 76.46285309 36.23510742 76.46191406 C35.05262421 76.46619919 33.87014099 76.47048431 32.65182495 76.47489929 C30.14850505 76.48064667 27.64516845 76.48113987 25.1418457 76.47680664 C21.31196544 76.47365108 17.48286063 76.49708671 13.65307617 76.52246094 C11.22208756 76.52473431 8.79109688 76.52543725 6.36010742 76.52441406 C5.21414093 76.53362381 4.06817444 76.54283356 2.88748169 76.55232239 C1.28089188 76.5429792 1.28089188 76.5429792 -0.3581543 76.53344727 C-1.29730682 76.53407669 -2.23645935 76.53470612 -3.20407104 76.53535461 C-6.45219736 76.07337903 -8.25464416 75.18384697 -10.83520508 73.16113281 C-12.89018794 69.49399176 -13.09966855 66.2448852 -13.14160156 62.08911133 C-13.15758896 60.88758926 -13.17357635 59.6860672 -13.19004822 58.44813538 C-13.19809227 56.5136277 -13.19809227 56.5136277 -13.20629883 54.54003906 C-13.215274 53.19392298 -13.224396 51.84780787 -13.23365784 50.50169373 C-13.25011217 47.68494245 -13.25784168 44.86830955 -13.26074219 42.05151367 C-13.26612942 38.45222925 -13.30383614 34.85406532 -13.34948635 31.25509739 C-13.37930762 28.47629278 -13.38646677 25.69775676 -13.38746834 22.91880608 C-13.393688 20.95011833 -13.42312794 18.9815479 -13.45298767 17.01307678 C-13.4027478 7.0549689 -13.4027478 7.0549689 -10.48779297 3.36401367 C-6.94116011 0.41865994 -4.46080233 0.03527375 0 0 Z " fill="#2F5A84" transform="translate(1007.835205078125,452.8388671875)"/>
<path d="M0 0 C6.6 -0.0825 13.2 -0.165 20 -0.25 C22.06765625 -0.28641602 24.1353125 -0.32283203 26.265625 -0.36035156 C27.92707281 -0.37204745 29.58853219 -0.38223714 31.25 -0.390625 C32.09433594 -0.41108887 32.93867187 -0.43155273 33.80859375 -0.45263672 C39.65246753 -0.45603432 44.15015526 0.6280888 49 4 C53.48509138 9.26998237 53.55082112 14.1003663 53.32421875 20.8984375 C52.80091755 25.9044755 51.70764064 29.34572313 48 32.9375 C46 34 46 34 43 34 C43 34.66 43 35.32 43 36 C43.721875 36.0825 44.44375 36.165 45.1875 36.25 C48.69068244 37.18418199 50.43905089 38.43905089 53 41 C55.95437029 48.06166556 56.53855968 57.07502289 54.2421875 64.42578125 C51.78411561 68.94514965 48.79166767 71.40277744 44 73 C42.54218278 73.08630926 41.08072526 73.11770981 39.62036133 73.11352539 C38.28092468 73.11334412 38.28092468 73.11334412 36.91442871 73.11315918 C35.97973755 73.10804321 35.04504639 73.10292725 34.08203125 73.09765625 C33.22009155 73.09664917 32.35815186 73.09564209 31.47009277 73.09460449 C28.25088165 73.08937322 25.03168948 73.07541195 21.8125 73.0625 C14.614375 73.041875 7.41625 73.02125 0 73 C0 48.91 0 24.82 0 0 Z " fill="#EFF2F4" transform="translate(1036,577)"/>
<path d="M0 0 C6.27 0 12.54 0 19 0 C19.33 18.48 19.66 36.96 20 56 C25.61 56 31.22 56 37 56 C38.69235633 54.30764367 38.16833809 52.15708271 38.20532227 49.83764648 C38.22526749 48.73658066 38.24521271 47.63551483 38.26576233 46.50108337 C38.28247482 45.3031868 38.29918732 44.10529022 38.31640625 42.87109375 C38.33718735 41.65172623 38.35796844 40.4323587 38.37937927 39.17604065 C38.44500428 35.26325355 38.50381972 31.35039683 38.5625 27.4375 C38.60567291 24.79231038 38.64928678 22.14712791 38.69335938 19.50195312 C38.80069884 13.00137425 38.9019294 6.50072505 39 0 C44.94 0 50.88 0 57 0 C57.0905653 8.22367726 57.16386722 16.44696327 57.20724869 24.6710062 C57.22807536 28.49025138 57.25630161 32.30913608 57.30175781 36.12817383 C57.34539325 39.81755527 57.36917408 43.50659117 57.37950897 47.19621086 C57.38686883 48.59997938 57.40124091 50.00373014 57.42292023 51.40735054 C57.63243528 65.54144388 57.63243528 65.54144388 53 71 C48.31340448 74.29079415 44.05436054 74.4549407 38.53125 74.43359375 C37.73271606 74.4388356 36.93418213 74.44407745 36.1114502 74.44947815 C34.43059446 74.45587427 32.74969382 74.45459269 31.06884766 74.44604492 C28.5073233 74.43752436 25.94802384 74.4663439 23.38671875 74.49804688 C21.7473965 74.49965896 20.10807032 74.49908121 18.46875 74.49609375 C17.70921021 74.50732773 16.94967041 74.51856171 16.16711426 74.53013611 C11.00624962 74.46298316 8.1247515 73.34882744 4 70 C0.31482879 65.80652932 -0.12445357 62.35123743 -0.11352539 56.8762207 C-0.11344986 55.61513992 -0.11337433 54.35405914 -0.11329651 53.05476379 C-0.10818989 51.67843588 -0.10297389 50.30210837 -0.09765625 48.92578125 C-0.09579086 47.51759389 -0.09436753 46.10940589 -0.09336853 44.70121765 C-0.08955288 40.9973267 -0.07973072 37.29347505 -0.06866455 33.58959961 C-0.05842997 29.80908744 -0.05386652 26.02856891 -0.04882812 22.24804688 C-0.03810759 14.83201127 -0.0205185 7.41601615 0 0 Z " fill="#F0F3F4" transform="translate(962,577)"/>
<path d="M0 0 C1.1707608 0.0001133 1.1707608 0.0001133 2.36517334 0.00022888 C3.19760559 0.00539017 4.03003784 0.01055145 4.88769531 0.01586914 C5.74768127 0.01728409 6.60766724 0.01869904 7.49371338 0.02015686 C10.2344514 0.02574442 12.97510707 0.03829465 15.71582031 0.05102539 C17.57649621 0.056042 19.4371734 0.06060462 21.29785156 0.06469727 C25.85387277 0.07570978 30.40983259 0.09296588 34.96582031 0.11352539 C35.72686569 10.71742426 35.72686569 10.71742426 33.21972656 15.31665039 C28.24298764 18.06490958 23.50155425 17.85687271 17.90332031 17.86352539 C15.74571584 17.89673896 13.58815652 17.93306976 11.43066406 17.97290039 C10.00161743 17.98015137 10.00161743 17.98015137 8.54370117 17.98754883 C6.19729168 18.10221379 4.2104651 18.44869022 1.96582031 19.11352539 C2.08393037 23.91919962 2.20816854 28.72466107 2.33813477 33.5300293 C2.38149569 35.16540192 2.42316993 36.80082016 2.46313477 38.4362793 C2.52080943 40.7845638 2.58451161 43.13261843 2.64941406 45.48071289 C2.66612656 46.21409882 2.68283905 46.94748474 2.70005798 47.70309448 C2.75219993 51.53554847 2.75219993 51.53554847 3.96582031 55.11352539 C14.19582031 55.44352539 24.42582031 55.77352539 34.96582031 56.11352539 C34.96582031 61.72352539 34.96582031 67.33352539 34.96582031 73.11352539 C29.23668229 73.18787531 23.5078273 73.24222211 17.77832031 73.27832031 C15.83067938 73.29337439 13.88307216 73.31382219 11.93554688 73.33984375 C9.13044903 73.37637592 6.32580077 73.39328572 3.52050781 73.40649414 C2.22172195 73.42971992 2.22172195 73.42971992 0.896698 73.45341492 C-4.17830776 73.45481663 -7.63136865 72.92498468 -12.03417969 70.11352539 C-15.46327022 66.32970136 -16.15743742 63.00806997 -16.21118164 58.00292969 C-16.22401688 56.96142258 -16.23685211 55.91991547 -16.25007629 54.84684753 C-16.25746323 53.72184341 -16.26485016 52.59683929 -16.27246094 51.43774414 C-16.28053268 50.27982864 -16.28860443 49.12191315 -16.29692078 47.9289093 C-16.31075823 45.47687273 -16.3214819 43.02481692 -16.3293457 40.57275391 C-16.34656396 36.82620717 -16.39045545 33.08054153 -16.43457031 29.33422852 C-16.44469683 26.95207355 -16.45321306 24.56991108 -16.45996094 22.18774414 C-16.47746902 21.06881271 -16.49497711 19.94988129 -16.51301575 18.79704285 C-16.49570223 12.57743922 -16.23049133 8.83028709 -12.03417969 4.11352539 C-8.32873237 0.75546376 -4.91373504 -0.01595369 0 0 Z " fill="#F0F3F4" transform="translate(844.0341796875,576.886474609375)"/>
<path d="M0 0 C6.27 0 12.54 0 19 0 C19 18.48 19 36.96 19 56 C29.23 56 39.46 56 50 56 C50 61.61 50 67.22 50 73 C33.5 73 17 73 0 73 C0 48.91 0 24.82 0 0 Z " fill="#EFF0F2" transform="translate(897,577)"/>
<path d="M0 0 C9.57 0 19.14 0 29 0 C29 9.57 29 19.14 29 29 C19.43 29 9.86 29 0 29 C0 19.43 0 9.86 0 0 Z " fill="#F7FBFB" transform="translate(1112,577)"/>
<path d="M0 0 C18.56065082 -1.73389236 32.14245682 2.62158492 49 10 C52.4513497 11.46278192 55.90926358 12.90619003 59.37744141 14.32861328 C61.53205726 15.21315317 63.67942931 16.11561861 65.81787109 17.03857422 C71.43274506 19.37150825 75.06663449 20.62105212 81 19 C81.804375 18.814375 82.60875 18.62875 83.4375 18.4375 C83.953125 18.293125 84.46875 18.14875 85 18 C83.63016497 21.16115776 83.0109362 21.9927092 80 24 C77.3125 24.125 77.3125 24.125 75 24 C75 24.99 75 25.98 75 27 C73.06965263 26.27310014 71.1396175 25.54536549 69.21069336 24.81469727 C67.40411727 24.1310064 65.59627848 23.45064507 63.78735352 22.77319336 C58.49708884 20.77485952 53.25016829 18.70315702 48.04501343 16.49380493 C25.39134886 6.78228436 25.39134886 6.78228436 1 5 C1 4.67 1 4.34 1 4 C11.89 3.505 11.89 3.505 23 3 C21.34920558 1.34920558 19.36263821 1.77450553 17.08984375 1.68359375 C16.10048828 1.64169922 15.11113281 1.59980469 14.09179688 1.55664062 C13.05087891 1.51732422 12.00996094 1.47800781 10.9375 1.4375 C9.37032227 1.37272461 9.37032227 1.37272461 7.77148438 1.30664062 C5.18113116 1.20018775 2.59067814 1.0981724 0 1 C0 0.67 0 0.34 0 0 Z " fill="#3B5C7F" transform="translate(579,444)"/>
<path d="M0 0 C6.75390029 1.93262973 13.32531364 4.15112343 19.875 6.6875 C20.76904541 7.03055176 21.66309082 7.37360352 22.58422852 7.72705078 C29.89318641 10.54306452 37.16959744 13.4398805 44.42724609 16.38549805 C46.61339111 17.26963087 48.80569513 18.13637584 51 19 C51.96292969 19.391875 52.92585937 19.78375 53.91796875 20.1875 C58.37874273 21.36347083 62.77934287 21.46765938 67.375 21.625 C68.30183594 21.66367187 69.22867188 21.70234375 70.18359375 21.7421875 C72.4555377 21.83587591 74.72748596 21.92159348 77 22 C77 22.33 77 22.66 77 23 C69.74 23.33 62.48 23.66 55 24 C55.495 25.485 55.495 25.485 56 27 C49.63109067 24.93584174 43.36057675 22.67271659 37.109375 20.27734375 C36.20173401 19.93119522 35.29409302 19.58504669 34.35894775 19.22840881 C31.4886225 18.13320028 28.61931779 17.03534483 25.75 15.9375 C23.80995843 15.19710158 21.8698548 14.45686575 19.9296875 13.71679688 C16.37952753 12.3615244 12.82936982 11.00624888 9.28027344 9.64819336 C8.52959595 9.36185028 7.77891846 9.0755072 7.00549316 8.78048706 C5.34987691 8.13616322 3.71006014 7.4513987 2.07519531 6.75610352 C-1.2692431 5.53754754 -3.90256614 6.65509222 -7.1875 7.6875 C-7.785625 7.790625 -8.38375 7.89375 -9 8 C-9.66 7.34 -10.32 6.68 -11 6 C-7.76080489 3.13455817 -5.20838141 2.65463711 -1 2 C-0.67 1.34 -0.34 0.68 0 0 Z " fill="#3F6081" transform="translate(675,537)"/>
<path d="M0 0 C4.20373025 0.67164863 7.8256758 2.05522105 11.75 3.6875 C17.30086081 5.96661571 22.88801071 8.04997928 28.5625 10 C35.25922407 12.30149762 41.70546136 14.95443134 48.14453125 17.8984375 C51.11189242 19.23994646 51.11189242 19.23994646 55 19 C55 20.32 55 21.64 55 23 C52.22750608 24.3694981 50.03618293 25.20875379 46.9407959 24.58514404 C44.51699292 23.75429101 42.16203351 22.82156769 39.796875 21.8359375 C38.91904358 21.48745758 38.04121216 21.13897766 37.13677979 20.77993774 C34.33377915 19.66248876 31.54212588 18.51931389 28.75 17.375 C26.88741123 16.62717919 25.02413544 15.88106712 23.16015625 15.13671875 C19.70364518 13.75317212 16.25127413 12.36028159 12.80371094 10.95458984 C12.01733246 10.63627197 11.23095398 10.3179541 10.42074585 9.98999023 C8.73572727 9.30088364 7.05623578 8.59817075 5.3812561 7.88500977 C0.85055428 5.98812448 -3.03198989 4.50501173 -8.0078125 4.390625 C-9.01328125 4.35839844 -10.01875 4.32617188 -11.0546875 4.29296875 C-12.06789063 4.27878906 -13.08109375 4.26460937 -14.125 4.25 C-15.176875 4.22035156 -16.22875 4.19070313 -17.3125 4.16015625 C-19.87507309 4.09026789 -22.43677962 4.03717599 -25 4 C-25 3.67 -25 3.34 -25 3 C-16.75 3 -8.5 3 0 3 C0 2.01 0 1.02 0 0 Z " fill="#3E6185" transform="translate(603,587)"/>
<path d="M0 0 C5.61 0 11.22 0 17 0 C16.67 0.99 16.34 1.98 16 3 C11.38 3 6.76 3 2 3 C2.00523682 4.77681152 2.01047363 6.55362305 2.01586914 8.38427734 C2.03197873 14.24761664 2.04347775 20.11095518 2.05181217 25.97430992 C2.05703606 29.53008635 2.06412478 33.08583889 2.07543945 36.64160156 C2.08835914 40.72721591 2.09323229 44.81280506 2.09765625 48.8984375 C2.10281754 50.17866791 2.10797882 51.45889832 2.11329651 52.77792358 C2.11337204 53.95899689 2.11344757 55.14007019 2.11352539 56.35693359 C2.115746 57.40062103 2.11796661 58.44430847 2.12025452 59.5196228 C2 62 2 62 1 64 C1.66 64 2.32 64 3 64 C2.67 66.31 2.34 68.62 2 71 C8.24811169 70.88269497 14.49603973 70.75785931 20.74389648 70.62768555 C22.87114007 70.58426577 24.9984201 70.54259607 27.12573242 70.50268555 C30.17638151 70.44515293 33.22684589 70.38141033 36.27734375 70.31640625 C37.23462875 70.29969376 38.19191376 70.28298126 39.1782074 70.26576233 C40.49946373 70.2358445 40.49946373 70.2358445 41.84741211 70.20532227 C42.62684677 70.18977798 43.40628143 70.1742337 44.20933533 70.15821838 C46.02293353 70.19110881 46.02293353 70.19110881 47 69 C47.23192865 67.48530552 47.41215238 65.96245438 47.5625 64.4375 C47.64628906 63.61121094 47.73007812 62.78492188 47.81640625 61.93359375 C47.90728516 60.97646484 47.90728516 60.97646484 48 60 C45.3178719 58.65893595 43.11601968 58.78549581 40.1171875 58.68359375 C38.36728516 58.62075195 38.36728516 58.62075195 36.58203125 58.55664062 C34.74705078 58.49766602 34.74705078 58.49766602 32.875 58.4375 C31.64394531 58.39431641 30.41289063 58.35113281 29.14453125 58.30664062 C26.09647147 58.20031296 23.0483281 58.09828219 20 58 C19.67 57.01 19.34 56.02 19 55 C28.9 55 38.8 55 49 55 C49 60.61 49 66.22 49 72 C32.83 72 16.66 72 0 72 C0 48.24 0 24.48 0 0 Z " fill="#EBF7FD" transform="translate(898,578)"/>
<path d="M0 0 C0.99 0 1.98 0 3 0 C3 41.58 3 83.16 3 126 C2.34 126 1.68 126 1 126 C0.67 84.42 0.34 42.84 0 0 Z " fill="#4C6B8F" transform="translate(1109,428)"/>
<path d="M0 0 C2.45862401 -0.05383848 4.9160755 -0.09359038 7.375 -0.125 C8.42300781 -0.15013672 8.42300781 -0.15013672 9.4921875 -0.17578125 C11.32897486 -0.19344267 13.16601963 -0.10303261 15 0 C17 2 17 2 17.265625 4.3125 C17.26046875 5.199375 17.2553125 6.08625 17.25 7 C17.25515625 7.886875 17.2603125 8.77375 17.265625 9.6875 C17 12 17 12 15 14 C12.41935871 14.14497985 9.95056116 14.18677545 7.375 14.125 C6.66859375 14.11597656 5.9621875 14.10695313 5.234375 14.09765625 C3.48943902 14.07407603 1.74467705 14.03820461 0 14 C0 9.38 0 4.76 0 0 Z " fill="#375C81" transform="translate(1055,621)"/>
<path d="M0 0 C0 0.33 0 0.66 0 1 C-49.005 1.495 -49.005 1.495 -99 2 C-99.33 1.01 -99.66 0.02 -100 -1 C-87.552379 -1.17693511 -75.10466496 -1.34289309 -62.65671158 -1.49477577 C-56.87684669 -1.56564462 -51.09708275 -1.64031686 -45.31738281 -1.72363281 C-39.74133594 -1.80387392 -34.1652447 -1.87418751 -28.58898163 -1.93757248 C-26.45985031 -1.96352796 -24.33075976 -1.99308141 -22.20172882 -2.02626419 C-19.22338034 -2.07207421 -16.2451446 -2.10517521 -13.26660156 -2.13525391 C-12.38331177 -2.1517952 -11.50002197 -2.16833649 -10.58996582 -2.18537903 C-9.77670837 -2.19104385 -8.96345093 -2.19670868 -8.12554932 -2.20254517 C-7.42129948 -2.2117631 -6.71704964 -2.22098103 -5.99145889 -2.23047829 C-3.65235654 -1.95976604 -2.03585511 -1.15379239 0 0 Z " fill="#657E9E" transform="translate(928,555)"/>
<path d="M0 0 C0.99 0.495 0.99 0.495 2 1 C2.10911227 2.56091166 2.18609398 4.12408492 2.25 5.6875 C2.29640625 6.55761719 2.3428125 7.42773438 2.390625 8.32421875 C1.85230716 12.01169598 0.69259624 13.4289135 -2 16 C-4.89093519 16.47858782 -7.18791409 16.63571898 -10.07324219 16.56762695 C-10.88337265 16.56835709 -11.69350311 16.56908722 -12.52818298 16.56983948 C-15.20176519 16.56636033 -17.8735978 16.52748563 -20.546875 16.48828125 C-22.40202889 16.47895424 -24.25719511 16.4718376 -26.11236572 16.46684265 C-30.99202557 16.44776395 -35.8709397 16.39865566 -40.75030518 16.34332275 C-45.73056958 16.29214906 -50.71095464 16.26933263 -55.69140625 16.24414062 C-65.4612649 16.19053776 -75.23057041 16.10521438 -85 16 C-85 15.34 -85 14.68 -85 14 C-57.61 14 -30.22 14 -2 14 C-0.99740493 10.99221479 -0.69685358 8.46179353 -0.4375 5.3125 C-0.31181641 3.82169922 -0.31181641 3.82169922 -0.18359375 2.30078125 C-0.12300781 1.54152344 -0.06242188 0.78226563 0 0 Z " fill="#395777" transform="translate(914,513)"/>
<path d="M0 0 C-4.18005438 4.18005438 -11.38175673 3.15226871 -17.01489258 3.16113281 C-18.16740509 3.16858017 -18.16740509 3.16858017 -19.34320068 3.17617798 C-21.86032023 3.19067119 -24.37737702 3.19757558 -26.89453125 3.203125 C-28.65093486 3.20888165 -30.40733846 3.21463932 -32.16374207 3.22039795 C-35.83271577 3.23086747 -39.50166778 3.23673835 -43.1706543 3.24023438 C-47.87971433 3.24574826 -52.58848946 3.26985423 -57.2974596 3.29820633 C-60.91846069 3.3167805 -64.53939191 3.32203523 -68.16043663 3.32357025 C-69.89764675 3.32660293 -71.63485547 3.3346521 -73.37201881 3.34775543 C-75.79226569 3.36472689 -78.2117986 3.36295938 -80.63208008 3.35644531 C-81.35260056 3.3656601 -82.07312103 3.37487488 -82.81547546 3.3843689 C-84.80744934 3.36749268 -84.80744934 3.36749268 -88 3 C-88.66 2.01 -89.32 1.02 -90 0 C-78.85615183 -0.15381582 -67.71224441 -0.30199712 -56.56822586 -0.4429636 C-51.39374944 -0.50859578 -46.21931369 -0.57617663 -41.04492188 -0.64819336 C-36.05238656 -0.71760762 -31.05980933 -0.78192601 -26.06716156 -0.84269524 C-24.16133994 -0.8667912 -22.25554073 -0.89273065 -20.34976959 -0.92053413 C-17.68275961 -0.95913008 -15.01574564 -0.99120115 -12.34863281 -1.02172852 C-11.5588504 -1.03467453 -10.76906799 -1.04762054 -9.95535278 -1.06095886 C-6.4509826 -1.09479296 -3.36994341 -0.9443671 0 0 Z " fill="#677F9E" transform="translate(1073,554)"/>
<path d="M0 0 C1.32 0 2.64 0 4 0 C4 7.92 4 15.84 4 24 C19.51 24 35.02 24 51 24 C51 27.63 51 31.26 51 35 C50.34 35 49.68 35 49 35 C49 32.36 49 29.72 49 27 C48.45320587 27.00222061 47.90641174 27.00444122 47.3430481 27.00672913 C41.66571708 27.02880686 35.9883982 27.04391705 30.31103516 27.05493164 C28.19058741 27.05996872 26.07014315 27.06679859 23.94970703 27.07543945 C20.90656678 27.08753234 17.86347234 27.09323447 14.8203125 27.09765625 C13.86818878 27.10281754 12.91606506 27.10797882 11.93508911 27.11329651 C11.05432709 27.11337204 10.17356506 27.11344757 9.26611328 27.11352539 C8.10029221 27.11685631 8.10029221 27.11685631 6.91091919 27.12025452 C5 27 5 27 3 26 C1.69872223 20.99748307 2.06216391 16.2157654 2.4375 11.125 C2.48970703 10.34125 2.54191406 9.5575 2.59570312 8.75 C2.72428851 6.8329088 2.86128617 4.91638497 3 3 C2.34 3 1.68 3 1 3 C0.67 2.01 0.34 1.02 0 0 Z " fill="#446280" transform="translate(1215,429)"/>
<path d="M0 0 C2.31243792 -0.02685412 4.6249627 -0.04632841 6.9375 -0.0625 C8.22527344 -0.07410156 9.51304688 -0.08570313 10.83984375 -0.09765625 C14 0 14 0 15 1 C15.09823996 2.47648876 15.12973519 3.95775417 15.125 5.4375 C15.12757812 6.24058594 15.13015625 7.04367187 15.1328125 7.87109375 C15 10 15 10 14 12 C9.38 12 4.76 12 0 12 C0 8.04 0 4.08 0 0 Z " fill="#345B7F" transform="translate(1055,593)"/>
<path d="M0 0 C2.64 0 5.28 0 8 0 C6.02 0.99 6.02 0.99 4 2 C3.67 17.51 3.34 33.02 3 49 C5.31 49.33 7.62 49.66 10 50 C9.67 50.66 9.34 51.32 9 52 C6.03 51.01 3.06 50.02 0 49 C0 32.83 0 16.66 0 0 Z " fill="#D7E5ED" transform="translate(577,591)"/>
<path d="M0 0 C0.33 0 0.66 0 1 0 C1.02312916 7.28421548 1.04091801 14.5684231 1.05181217 21.85266781 C1.05703975 25.23471813 1.06413511 28.6167434 1.07543945 31.9987793 C1.08834267 35.88329777 1.09322924 39.76780597 1.09765625 43.65234375 C1.10281754 44.87211411 1.10797882 46.09188446 1.11329651 47.34861755 C1.11340981 49.03024742 1.11340981 49.03024742 1.11352539 50.74584961 C1.115746 51.73846298 1.11796661 52.73107635 1.12025452 53.75376892 C1 56 1 56 0 57 C-2.84335048 57.09986975 -5.65697163 57.13877881 -8.5 57.125 C-9.29792969 57.12886719 -10.09585938 57.13273438 -10.91796875 57.13671875 C-16.87339233 57.12660767 -16.87339233 57.12660767 -18 56 C-18.09353163 54.31198015 -18.11744791 52.62004793 -18.11352539 50.92944336 C-18.11344986 49.84839828 -18.11337433 48.76735321 -18.11329651 47.65354919 C-18.10813522 46.4775264 -18.10297394 45.3015036 -18.09765625 44.08984375 C-18.0962413 42.89267227 -18.09482635 41.69550079 -18.09336853 40.46205139 C-18.08774979 36.62050934 -18.07519411 32.77902457 -18.0625 28.9375 C-18.05748741 26.34049563 -18.05292409 23.74349035 -18.04882812 21.14648438 C-18.03777427 14.76430321 -18.02101792 8.3821557 -18 2 C-17.01 2.495 -17.01 2.495 -16 3 C-16.00222061 3.55043976 -16.00444122 4.10087952 -16.00672913 4.66799927 C-16.02889861 10.41082102 -16.04395524 16.15363055 -16.05493164 21.89648438 C-16.05995204 24.03809096 -16.06676969 26.17969414 -16.07543945 28.32128906 C-16.08760549 31.40430546 -16.09325133 34.48727643 -16.09765625 37.5703125 C-16.10281754 38.52366486 -16.10797882 39.47701721 -16.11329651 40.45925903 C-16.11368501 45.09092165 -15.95837521 49.44357251 -15 54 C-11.04 54.33 -7.08 54.66 -3 55 C-1.10441349 51.20882698 -0.74084012 49.88323495 -0.68115234 45.86425781 C-0.66128265 44.84350159 -0.64141296 43.82274536 -0.62094116 42.77105713 C-0.60938995 41.67613953 -0.59783875 40.58122192 -0.5859375 39.453125 C-0.56657135 38.3267865 -0.5472052 37.200448 -0.5272522 36.03997803 C-0.46748479 32.44339566 -0.42108181 28.84678124 -0.375 25.25 C-0.33681766 22.81118398 -0.29776578 20.3723814 -0.2578125 17.93359375 C-0.16178551 11.95584856 -0.07672952 5.97802234 0 0 Z " fill="#3A5876" transform="translate(999,577)"/>
<path d="M0 0 C7.06582882 -0.02531773 14.13164598 -0.04285324 21.19750977 -0.05493164 C23.60213661 -0.05996598 26.00676038 -0.06679386 28.41137695 -0.07543945 C31.86410275 -0.08754429 35.31678814 -0.09323726 38.76953125 -0.09765625 C39.84773636 -0.10281754 40.92594147 -0.10797882 42.03681946 -0.11329651 C43.53803596 -0.11340981 43.53803596 -0.11340981 45.06958008 -0.11352539 C45.95116287 -0.115746 46.83274567 -0.11796661 47.74104309 -0.12025452 C50 0 50 0 53 1 C53 1.66 53 2.32 53 3 C35.51 3 18.02 3 0 3 C0 2.01 0 1.02 0 0 Z " fill="#486684" transform="translate(1003,453)"/>
<path d="M0 0 C1.32 0.33 2.64 0.66 4 1 C3.34 1.66 2.68 2.32 2 3 C0.17949391 6.70626561 -0.23864426 9.64646572 -0.1953125 13.75244141 C-0.18870605 14.88356354 -0.18209961 16.01468567 -0.17529297 17.18008423 C-0.15869629 18.39167206 -0.14209961 19.60325989 -0.125 20.8515625 C-0.11742676 22.1025473 -0.10985352 23.3535321 -0.10205078 24.64242554 C-0.07762308 28.63676053 -0.04076073 32.63080795 0 36.625 C0.05360595 41.88800111 0.09308876 47.15087244 0.125 52.4140625 C0.14159668 53.62969879 0.15819336 54.84533508 0.17529297 56.09780884 C0.18189941 57.22262665 0.18850586 58.34744446 0.1953125 59.50634766 C0.20578613 60.49720367 0.21625977 61.48805969 0.22705078 62.50894165 C0 65 0 65 -2 68 C-3.06566856 64.80299431 -3.13958438 62.48409934 -3.16113281 59.12329102 C-3.17074036 57.91516251 -3.1803479 56.707034 -3.19024658 55.46229553 C-3.19449646 54.15602707 -3.19874634 52.84975861 -3.203125 51.50390625 C-3.2088787 50.15014138 -3.2146364 48.79637653 -3.22039795 47.44261169 C-3.23089646 44.6055361 -3.23674693 41.76848876 -3.24023438 38.93139648 C-3.24572299 35.29854255 -3.26976317 31.66606268 -3.29820633 28.03332615 C-3.31684011 25.23747163 -3.32203864 22.44170719 -3.32357025 19.64579582 C-3.32806373 17.65603677 -3.34670403 15.66632597 -3.36553955 13.676651 C-3.36253845 12.46537033 -3.35953735 11.25408966 -3.35644531 10.00610352 C-3.36009094 8.94037613 -3.36373657 7.87464874 -3.36749268 6.77662659 C-2.95537045 3.66279712 -2.08858609 2.29620678 0 0 Z " fill="#425D7D" transform="translate(998,456)"/>
<path d="M0 0 C0.99 0.33 1.98 0.66 3 1 C2.91559753 9.27564606 2.82071479 17.55107742 2.71247292 25.82644272 C2.66253995 29.66908919 2.61620977 33.51170857 2.578125 37.35449219 C2.5412341 41.06341688 2.49486404 44.77211329 2.44193649 48.48084259 C2.42341271 49.89536787 2.40829728 51.30994205 2.39665604 52.72454071 C2.37975987 54.70675762 2.34959077 56.68884792 2.31884766 58.67089844 C2.30552399 59.79896912 2.29220032 60.92703979 2.2784729 62.08929443 C2.00770263 64.91948912 1.46774456 66.5972224 0 69 C-0.66 68.67 -1.32 68.34 -2 68 C-1.67 67.01 -1.34 66.02 -1 65 C-0.88251223 62.89971215 -0.82315675 60.79600552 -0.79467773 58.69262695 C-0.7647599 56.74094353 -0.7647599 56.74094353 -0.73423767 54.74983215 C-0.71725454 53.3293164 -0.70037569 51.9087994 -0.68359375 50.48828125 C-0.66301863 49.03524694 -0.64202201 47.58221854 -0.62062073 46.12919617 C-0.56545766 42.3070047 -0.51602302 38.48475974 -0.46777344 34.66247559 C-0.41751628 30.76126348 -0.36185222 26.86012895 -0.30664062 22.95898438 C-0.19912959 15.30605531 -0.09766902 7.65306167 0 0 Z " fill="#576E8A" transform="translate(1019,576)"/>
<path d="M0 0 C1.98 0 3.96 0 6 0 C6.01030746 0.6742955 6.02061493 1.348591 6.03123474 2.0433197 C6.13905769 9.03443582 6.25367443 16.02541667 6.37231445 23.01635742 C6.41574124 25.62863344 6.45741038 28.24093928 6.49731445 30.85327148 C6.55483007 34.59888719 6.61857764 38.34435169 6.68359375 42.08984375 C6.70030624 43.26586655 6.71701874 44.44188934 6.73423767 45.65354919 C6.75418289 46.73459427 6.77412811 47.81563934 6.79467773 48.92944336 C6.81022202 49.88652695 6.8257663 50.84361053 6.84178162 51.82969666 C6.7606861 53.97862694 6.7606861 53.97862694 8 55 C10.80339635 55.12689057 13.57117843 55.1852093 16.375 55.1875 C17.15617188 55.19974609 17.93734375 55.21199219 18.7421875 55.22460938 C22.67635523 55.23471426 24.65592449 55.22938367 28 53 C27 55 26 57 25 59 C11.02775151 59.68904239 11.02775151 59.68904239 7.1875 57.0625 C4.00346881 54.06041345 4.00346881 54.06041345 3.87974548 51.90562439 C3.8830764 50.52329369 3.8830764 50.52329369 3.88647461 49.11303711 C3.88658791 47.55153175 3.88658791 47.55153175 3.88670349 45.95848083 C3.89186478 44.8262056 3.89702606 43.69393036 3.90234375 42.52734375 C3.9037587 41.37456436 3.90517365 40.22178497 3.90663147 39.03407288 C3.91224995 35.33518936 3.92480558 31.63636536 3.9375 27.9375 C3.94251262 25.43684983 3.94707594 22.93619871 3.95117188 20.43554688 C3.96222538 14.29034412 3.97898148 8.14517631 4 2 C2.68 2 1.36 2 0 2 C0 1.34 0 0.68 0 0 Z " fill="#EAF5FD" transform="translate(974,578)"/>
<path d="M0 0 C1.7448252 0.64104284 3.48658437 1.2923464 5.20727539 1.99560547 C15.78428612 6.2864482 25.67268587 6.97657226 37 7 C37 7.33 37 7.66 37 8 C29.74 8.33 22.48 8.66 15 9 C15.33 9.99 15.66 10.98 16 12 C9.27954125 9.80962826 2.63275997 7.44234339 -4 5 C-2.25 1.125 -2.25 1.125 0 0 Z " fill="#3A5E82" transform="translate(715,552)"/>
<path d="M0 0 C0.99 0.495 0.99 0.495 2 1 C1.67 17.17 1.34 33.34 1 50 C5.063125 49.855625 9.12625 49.71125 13.3125 49.5625 C14.59036377 49.51939697 15.86822754 49.47629395 17.18481445 49.43188477 C18.1924585 49.39377686 19.20010254 49.35566895 20.23828125 49.31640625 C21.7857605 49.26141968 21.7857605 49.26141968 23.36450195 49.20532227 C26.10748258 49.09838758 26.10748258 49.09838758 29 48 C29.33 49.32 29.66 50.64 30 52 C20.1 52 10.2 52 0 52 C0 34.84 0 17.68 0 0 Z " fill="#355879" transform="translate(917,581)"/>
<path d="M0 0 C0.72469482 0.15847412 1.44938965 0.31694824 2.19604492 0.48022461 C4.78951662 0.96098223 7.2319784 1.19757322 9.86328125 1.31640625 C11.19262695 1.37924805 11.19262695 1.37924805 12.54882812 1.44335938 C13.9168457 1.50233398 13.9168457 1.50233398 15.3125 1.5625 C16.70952148 1.62727539 16.70952148 1.62727539 18.13476562 1.69335938 C20.42304454 1.79897225 22.71142372 1.90107752 25 2 C24.77514648 4.36010742 24.77514648 4.36010742 24 7 C22.08227539 8.30200195 22.08227539 8.30200195 19.59765625 9.23828125 C18.70755859 9.58310547 17.81746094 9.92792969 16.90039062 10.28320312 C15.49563477 10.79270508 15.49563477 10.79270508 14.0625 11.3125 C13.12986328 11.67150391 12.19722656 12.03050781 11.23632812 12.40039062 C4.38821429 15 4.38821429 15 2 15 C2 14.34 2 13.68 2 13 C4.33366933 10.98821609 6.04785514 9.98404829 9 9 C10.39770552 8.48421192 11.79346238 7.96312074 13.1875 7.4375 C13.90292969 7.16808594 14.61835937 6.89867187 15.35546875 6.62109375 C15.89816406 6.41613281 16.44085937 6.21117187 17 6 C11.6822785 4.75799248 6.41798672 3.69165788 1 3 C0.67 2.01 0.34 1.02 0 0 Z " fill="#E9F4FA" transform="translate(727,563)"/>
<path d="M0 0 C0.99 1.485 0.99 1.485 2 3 C4.1698749 3.43066942 4.1698749 3.43066942 6.70922852 3.32470703 C7.68686661 3.32125275 8.6645047 3.31779846 9.67176819 3.3142395 C10.73012375 3.29561859 11.78847931 3.27699768 12.87890625 3.2578125 C13.96131088 3.25119598 15.04371552 3.24457947 16.15892029 3.23776245 C19.6270647 3.21428775 23.09458105 3.17055165 26.5625 3.125 C30.03391433 3.09001508 33.50529501 3.0592309 36.97679138 3.03366089 C39.14031225 3.01659602 41.30379445 2.99338423 43.46717834 2.96365356 C44.44166428 2.95389496 45.41615021 2.94413635 46.42016602 2.93408203 C47.28239273 2.92281281 48.14461945 2.91154358 49.03297424 2.89993286 C51 3 51 3 52 4 C52.08737645 5.85369611 52.10698153 7.71067541 52.09765625 9.56640625 C52.09443359 10.69111328 52.09121094 11.81582031 52.08789062 12.97460938 C52.07532227 14.75061523 52.07532227 14.75061523 52.0625 16.5625 C52.05798828 17.75037109 52.05347656 18.93824219 52.04882812 20.16210938 C52.03699675 23.10812226 52.02051287 26.05403681 52 29 C51.34 29 50.68 29 50 29 C50 21.08 50 13.16 50 5 C33.5 5 17 5 0 5 C0 3.35 0 1.7 0 0 Z " fill="#3D5775" transform="translate(1141,479)"/>
<path d="M0 0 C0.33 0 0.66 0 1 0 C1 16.17 1 32.34 1 49 C-0.32 49 -1.64 49 -3 49 C-2.84080078 48.37834961 -2.68160156 47.75669922 -2.51757812 47.11621094 C-1.7990741 42.79027447 -1.78395442 38.51928554 -1.71875 34.140625 C-1.70034058 33.19564148 -1.68193115 32.25065796 -1.66296387 31.27703857 C-1.58440165 27.24225984 -1.51625157 23.20732362 -1.44775391 19.17236328 C-1.39619763 16.22419552 -1.33891518 13.27617856 -1.28125 10.328125 C-1.26767456 9.40839905 -1.25409912 8.4886731 -1.2401123 7.54107666 C-1.11288822 1.11288822 -1.11288822 1.11288822 0 0 Z " fill="#F9F1EE" transform="translate(965,591)"/>
<path d="M0 0 C0.35360596 0.4844458 0.70721191 0.9688916 1.0715332 1.46801758 C3.91863934 3.72977109 6.25669937 3.43579535 9.85546875 3.51171875 C10.51710526 3.52966995 11.17874176 3.54762115 11.86042786 3.56611633 C13.96938747 3.62020898 16.07812099 3.65410931 18.1875 3.6875 C19.61917208 3.72067427 21.05081433 3.75516405 22.48242188 3.79101562 C25.9880639 3.87593257 29.49378473 3.94274921 33 4 C33 6.31 33 8.62 33 11 C32.34 10.67 31.68 10.34 31 10 C31.33 9.34 31.66 8.68 32 8 C30.58456585 7.80341192 29.16755969 7.61812454 27.75 7.4375 C26.96109375 7.33308594 26.1721875 7.22867188 25.359375 7.12109375 C23.06582669 6.88299746 23.06582669 6.88299746 21.171875 7.484375 C17.90714865 8.25945392 14.8409708 7.98678293 11.5 7.8125 C10.1903125 7.75707031 8.880625 7.70164062 7.53125 7.64453125 C3.61374396 6.92949973 2.29653258 6.20460031 0 3 C0 2.01 0 1.02 0 0 Z " fill="#EAF5FD" transform="translate(845,629)"/>
<path d="M0 0 C1.74023438 0.00966797 1.74023438 0.00966797 3.515625 0.01953125 C4.7221875 0.03628906 5.92875 0.05304687 7.171875 0.0703125 C9.00492188 0.08384766 9.00492188 0.08384766 10.875 0.09765625 C13.89082282 0.12121737 16.90624992 0.15411544 19.921875 0.1953125 C18.7956543 1.67700195 18.7956543 1.67700195 16.921875 3.1953125 C14.19458008 3.53588867 14.19458008 3.53588867 10.94140625 3.48828125 C9.89315674 3.48078857 8.84490723 3.4732959 7.76489258 3.46557617 C5.76978638 3.42460815 5.76978638 3.42460815 3.734375 3.3828125 C-0.49375 3.3209375 -4.721875 3.2590625 -9.078125 3.1953125 C-9.078125 14.0853125 -9.078125 24.9753125 -9.078125 36.1953125 C-9.408125 36.1953125 -9.738125 36.1953125 -10.078125 36.1953125 C-10.078125 24.9753125 -10.078125 13.7553125 -10.078125 2.1953125 C-6.00557351 0.15903675 -4.40396025 -0.04317608 0 0 Z " fill="#6E85A0" transform="translate(856.078125,593.8046875)"/>
<path d="M0 0 C0.33 0 0.66 0 1 0 C1.33 10.89 1.66 21.78 2 33 C10.42122375 33.24941083 10.42122375 33.24941083 18.84301758 33.47802734 C20.41539185 33.53144287 20.41539185 33.53144287 22.01953125 33.5859375 C23.09307861 33.6173584 24.16662598 33.6487793 25.27270508 33.68115234 C28 34 28 34 31 36 C26.74585377 36.02465622 22.49174502 36.04283899 18.23754883 36.05493164 C16.78929927 36.05997101 15.34105483 36.06680253 13.89282227 36.07543945 C11.81525412 36.08752247 9.73775303 36.09323211 7.66015625 36.09765625 C6.40855713 36.10289307 5.15695801 36.10812988 3.86743164 36.11352539 C1 36 1 36 0 35 C-0.08851529 32.40640678 -0.11525945 29.83960309 -0.09765625 27.24609375 C-0.09553383 26.08292381 -0.09553383 26.08292381 -0.09336853 24.89625549 C-0.08775345 22.40996506 -0.07519846 19.9237634 -0.0625 17.4375 C-0.05748694 15.75586067 -0.0529237 14.07421994 -0.04882812 12.39257812 C-0.03777913 8.26168434 -0.02050445 4.13085724 0 0 Z " fill="#3A5775" transform="translate(847,597)"/>
<path d="M0 0 C4.38889325 0.66498383 7.9811485 2.18757677 12 4 C11.67 5.32 11.34 6.64 11 8 C7.40790707 8.26283607 5.29626603 8.14657372 2.03125 6.53125 C-3.07891329 4.24375336 -8.42373746 4.43229 -13.9375 4.3125 C-15.00291016 4.27833984 -16.06832031 4.24417969 -17.16601562 4.20898438 C-19.77723846 4.12701774 -22.38814721 4.05770113 -25 4 C-25 3.67 -25 3.34 -25 3 C-16.75 3 -8.5 3 0 3 C0 2.01 0 1.02 0 0 Z " fill="#486788" transform="translate(603,587)"/>
<path d="M0 0 C2.18585404 3.27878106 2.27623845 4.40573582 2.37890625 8.2265625 C2.41306641 9.25910156 2.44722656 10.29164063 2.48242188 11.35546875 C2.50884766 12.43441406 2.53527344 13.51335937 2.5625 14.625 C2.76858403 21.80724776 3.0955038 28.86868286 4 36 C3.01 36 2.02 36 1 36 C-0.53297297 32.93405406 -0.12131455 29.72888147 -0.09765625 26.3671875 C-0.0962413 25.61535187 -0.09482635 24.86351624 -0.09336853 24.08889771 C-0.08776465 21.6842249 -0.07521157 19.27964473 -0.0625 16.875 C-0.0574855 15.24609509 -0.0529225 13.61718873 -0.04882812 11.98828125 C-0.03779397 7.99215173 -0.02052679 3.99609158 0 0 Z " fill="#4C6989" transform="translate(826,450)"/>
<path d="M0 0 C0.33 1.32 0.66 2.64 1 4 C1.66 4 2.32 4 3 4 C3.09218155 10.92385835 3.10704245 17.83594037 2.6875 24.75 C2.62949219 25.71421875 2.57148437 26.6784375 2.51171875 27.671875 C2 30 2 30 -1 32 C-0.67 21.44 -0.34 10.88 0 0 Z " fill="#35587A" transform="translate(946,502)"/>
<path d="M0 0 C5.94 0 11.88 0 18 0 C17.01 0.495 17.01 0.495 16 1 C16 1.66 16 2.32 16 3 C14.20909747 3.19466332 12.41723495 3.38051213 10.625 3.5625 C9.12839844 3.71912109 9.12839844 3.71912109 7.6015625 3.87890625 C5 4 5 4 3 3 C2.67 6.96 2.34 10.92 2 15 C0 13 0 13 -0.1953125 9.9609375 C-0.13020833 6.640625 -0.06510417 3.3203125 0 0 Z " fill="#E1EBF6" transform="translate(1001,577)"/>
<path d="M0 0 C20.13 0 40.26 0 61 0 C59 2 59 2 56.64024353 2.23377991 C55.65286697 2.22632248 54.66549042 2.21886505 53.64819336 2.21118164 C52.53041 2.20780289 51.41262665 2.20442413 50.26097107 2.20094299 C49.04949905 2.18748337 47.83802704 2.17402374 46.58984375 2.16015625 C45.3520668 2.15495468 44.11428986 2.14975311 42.83900452 2.14439392 C39.54640471 2.12956373 36.25400055 2.10664172 32.96148682 2.07904053 C28.31613482 2.04107755 23.67073837 2.01345527 19.02528381 1.99131775 C16.55018356 1.97899389 14.07510344 1.96132693 11.6000824 1.93800354 C10.4854512 1.93147263 9.37082001 1.92494171 8.22241211 1.91821289 C7.23583115 1.90995987 6.24925018 1.90170685 5.23277283 1.89320374 C3.02800253 1.74782542 3.02800253 1.74782542 2 3 C1.63239269 5.32817964 1.29758419 7.6618385 1 10 C0.67 10 0.34 10 0 10 C0 6.7 0 3.4 0 0 Z " fill="#385774" transform="translate(1141,454)"/>
<path d="M0 0 C1.01771484 0.01353516 2.03542969 0.02707031 3.08398438 0.04101562 C5.57738214 0.0761339 8.06965512 0.12531441 10.5625 0.1875 C10.2325 1.5075 9.9025 2.8275 9.5625 4.1875 C9.5625 3.5275 9.5625 2.8675 9.5625 2.1875 C7.27050823 2.32813135 4.97890814 2.47515943 2.6875 2.625 C1.41132812 2.70621094 0.13515625 2.78742188 -1.1796875 2.87109375 C-4.32050152 2.97956027 -4.32050152 2.97956027 -6.4375 4.1875 C-7.8296875 3.9090625 -7.8296875 3.9090625 -9.25 3.625 C-12.74117922 3.14581854 -14.33549055 3.63649528 -17.4375 5.1875 C-17.7675 4.5275 -18.0975 3.8675 -18.4375 3.1875 C-12.23412991 -0.12734432 -6.94503869 -0.17622414 0 0 Z " fill="#C3D8E0" transform="translate(741.4375,377.8125)"/>
<path d="M0 0 C0 0.66 0 1.32 0 2 C-3.9943492 5.9943492 -7.63003413 6.90780355 -13 8 C-13 8.99 -13 9.98 -13 11 C-13.66 11 -14.32 11 -15 11 C-15 9.02 -15 7.04 -15 5 C-12.8765984 4.16260219 -10.7512272 3.33019717 -8.625 2.5 C-7.44164062 2.0359375 -6.25828125 1.571875 -5.0390625 1.09375 C-2 0 -2 0 0 0 Z " fill="#E3EAF4" transform="translate(592,574)"/>
<path d="M0 0 C0.33 0.99 0.66 1.98 1 3 C-5.31603219 5.85240164 -12.18882219 6.95212649 -19 8 C-19 7.34 -19 6.68 -19 6 C-16.39802798 4.99394407 -13.79370638 3.99497475 -11.1875 3 C-10.08051758 2.57074219 -10.08051758 2.57074219 -8.95117188 2.1328125 C-8.23896484 1.86210937 -7.52675781 1.59140625 -6.79296875 1.3125 C-6.1383667 1.06113281 -5.48376465 0.80976563 -4.80932617 0.55078125 C-3 0 -3 0 0 0 Z " fill="#3B5B7C" transform="translate(743,432)"/>
<path d="M0 0 C4.27183496 0.05172037 8.54162389 0.14676285 12.8125 0.25 C14.63491211 0.27126953 14.63491211 0.27126953 16.49414062 0.29296875 C17.65751953 0.32519531 18.82089844 0.35742188 20.01953125 0.390625 C21.09307861 0.41157227 22.16662598 0.43251953 23.27270508 0.45410156 C26 1 26 1 27.8737793 3.03808594 C28.24543213 3.68551758 28.61708496 4.33294922 29 5 C19.30452907 3.83007154 9.6434699 2.55220235 0 1 C0 0.67 0 0.34 0 0 Z " fill="#4C6A86" transform="translate(869,475)"/>
<path d="M0 0 C-2.52016239 3.78024358 -3.62615545 3.92572239 -8 5 C-11.66039013 5.44307336 -15.32165384 5.7512862 -19 6 C-16.44761309 3.44761309 -13.982213 2.62898015 -10.625 1.3125 C-8.91183594 0.62607422 -8.91183594 0.62607422 -7.1640625 -0.07421875 C-4.11797309 -0.96548195 -2.87781411 -1.169555 0 0 Z " fill="#3D5F80" transform="translate(696,593)"/>
<path d="M0 0 C0 0.66 0 1.32 0 2 C-3.28942366 3.33891561 -6.58189109 4.67017703 -9.875 6 C-10.81214844 6.3815625 -11.74929688 6.763125 -12.71484375 7.15625 C-13.61074219 7.5171875 -14.50664063 7.878125 -15.4296875 8.25 C-16.25710449 8.58515625 -17.08452148 8.9203125 -17.93701172 9.265625 C-20 10 -20 10 -22 10 C-21 7 -21 7 -18.5234375 5.68359375 C-4.1630094 0 -4.1630094 0 0 0 Z " fill="#E3F0FA" transform="translate(725,578)"/>
<path d="M0 0 C-3.35690365 2.23793576 -6.8339284 3.65050338 -10.5625 5.125 C-11.24763672 5.40214844 -11.93277344 5.67929687 -12.63867188 5.96484375 C-17.7466133 8 -17.7466133 8 -20 8 C-20 7.34 -20 6.68 -20 6 C-16.38314539 2.88202189 -12.4821281 1.80234437 -8 0.375 C-7.13375 0.09398437 -6.2675 -0.18703125 -5.375 -0.4765625 C-3 -1 -3 -1 0 0 Z " fill="#E1ECF7" transform="translate(749,570)"/>
<path d="M0 0 C1.6792238 0.63437344 3.35008418 1.29289322 5 2 C4.67 2.66 4.34 3.32 4 4 C4 4.66 4 5.32 4 6 C-1.37305699 5.7357513 -1.37305699 5.7357513 -4 5 C-6 2.4375 -6 2.4375 -7 0 C-4.26965677 -1.36517162 -2.92769462 -0.74894513 0 0 Z " fill="#305981" transform="translate(710,550)"/>
<path d="M0 0 C4.56454251 0.54339792 7.9728176 1.79463821 12 4 C12 4.99 12 5.98 12 7 C8.92554219 6.92910055 5.98981705 6.74745426 3 6 C0 2.36363636 0 2.36363636 0 0 Z " fill="#395B7D" transform="translate(687,542)"/>
<path d="M0 0 C5.73138244 -0.15490223 10.89349206 0.34755115 16.5 1.5 C17.22703125 1.64308594 17.9540625 1.78617187 18.703125 1.93359375 C20.47009071 2.28233698 22.23525309 2.64019723 24 3 C24 3.66 24 4.32 24 5 C22.783125 5.04125 21.56625 5.0825 20.3125 5.125 C19.28576172 5.15980469 19.28576172 5.15980469 18.23828125 5.1953125 C16 5 16 5 13.625 4.03125 C10.57857998 2.83444213 7.94662645 2.58988746 4.6875 2.375 C3.08455078 2.26285156 3.08455078 2.26285156 1.44921875 2.1484375 C0.64097656 2.09945313 -0.16726563 2.05046875 -1 2 C-0.67 1.34 -0.34 0.68 0 0 Z " fill="#3C5B79" transform="translate(866,502)"/>
<path d="M0 0 C1 2 1 2 0.40625 4.0703125 C-1 6 -1 6 -3.53125 6.6796875 C-4.5109375 6.74414062 -5.490625 6.80859375 -6.5 6.875 C-7.4796875 6.95492187 -8.459375 7.03484375 -9.46875 7.1171875 C-12 7 -12 7 -14 5 C-7.07 2.525 -7.07 2.525 0 0 Z " fill="#E0EAF1" transform="translate(606,568)"/>
<path d="M0 0 C1.1875 2.0625 1.1875 2.0625 2 4 C0.25 6 0.25 6 -2 8 C-3.32 8 -4.64 8 -6 8 C-5.95875 7.21625 -5.9175 6.4325 -5.875 5.625 C-5.71271266 2.83883881 -5.71271266 2.83883881 -8 1 C-3.375 -1.125 -3.375 -1.125 0 0 Z " fill="#39618B" transform="translate(718,584)"/>
<path d="M0 0 C0.72469482 0.15847412 1.44938965 0.31694824 2.19604492 0.48022461 C4.78951662 0.96098223 7.2319784 1.19757322 9.86328125 1.31640625 C11.19262695 1.37924805 11.19262695 1.37924805 12.54882812 1.44335938 C13.9168457 1.50233398 13.9168457 1.50233398 15.3125 1.5625 C16.70952148 1.62727539 16.70952148 1.62727539 18.13476562 1.69335938 C20.42304454 1.79897225 22.71142372 1.90107752 25 2 C25 2.33 25 2.66 25 3 C14.11 3.495 14.11 3.495 3 4 C3.33 4.99 3.66 5.98 4 7 C2.35 6.67 0.7 6.34 -1 6 C-0.67 4.02 -0.34 2.04 0 0 Z " fill="#56708D" transform="translate(727,557)"/>
<path d="M0 0 C1.35015859 4.05047576 0.62084998 6.7920168 0 11 C-4.455 9.02 -4.455 9.02 -9 7 C-9 6.34 -9 5.68 -9 5 C-8.43410156 4.80664062 -7.86820313 4.61328125 -7.28515625 4.4140625 C-6.55167969 4.15367187 -5.81820313 3.89328125 -5.0625 3.625 C-3.96615234 3.24214844 -3.96615234 3.24214844 -2.84765625 2.8515625 C-0.81317884 2.14728587 -0.81317884 2.14728587 0 0 Z " fill="#3C5E80" transform="translate(1088,606)"/>
<path d="M0 0 C-1.36983503 3.16115776 -1.9890638 3.9927092 -5 6 C-7.6875 6.125 -7.6875 6.125 -10 6 C-10 6.99 -10 7.98 -10 9 C-13 7 -13 7 -14 4 C-13.30132813 3.79503906 -12.60265625 3.59007812 -11.8828125 3.37890625 C-10.97273437 3.10949219 -10.06265625 2.84007812 -9.125 2.5625 C-8.22007812 2.29566406 -7.31515625 2.02882813 -6.3828125 1.75390625 C-0.83937824 0 -0.83937824 0 0 0 Z " fill="#416489" transform="translate(664,462)"/>
<path d="M0 0 C0.721875 0.391875 1.44375 0.78375 2.1875 1.1875 C-0.78078999 3.16635999 -3.58697054 4.44614997 -6.875 5.8125 C-7.93847656 6.25851562 -9.00195312 6.70453125 -10.09765625 7.1640625 C-12.8125 8.1875 -12.8125 8.1875 -14.8125 8.1875 C-14.8125 7.5275 -14.8125 6.8675 -14.8125 6.1875 C-12.16511084 4.7268715 -10.91801666 4.1875 -7.8125 4.1875 C-7.8125 3.5275 -7.8125 2.8675 -7.8125 2.1875 C-4.86429158 -0.17106674 -3.72198415 -1.07523986 0 0 Z " fill="#426182" transform="translate(599.8125,426.8125)"/>
<path d="M0 0 C0 0.66 0 1.32 0 2 C0.86625 2.103125 1.7325 2.20625 2.625 2.3125 C6.16683123 3.03398414 8.84312042 4.27123261 12 6 C11.67 6.66 11.34 7.32 11 8 C0.44191344 4.92482916 0.44191344 4.92482916 -4 3 C-4 2.34 -4 1.68 -4 1 C-2 0 -2 0 0 0 Z " fill="#466787" transform="translate(738,641)"/>
<path d="M0 0 C0.66 0.33 1.32 0.66 2 1 C2 1.99 2 2.98 2 4 C-7.9 4 -17.8 4 -28 4 C-28 3.67 -28 3.34 -28 3 C-19.42 3 -10.84 3 -2 3 C-2 2.34 -2 1.68 -2 1 C-1.34 0.67 -0.68 0.34 0 0 Z " fill="#3C5671" transform="translate(945,629)"/>
<path d="M0 0 C6.58976117 0.57302271 14.20320736 2.20320736 19 7 C16.3333581 8.33332095 14.83319697 7.67102033 12 7 C12 6.34 12 5.68 12 5 C11.30132813 4.80664062 10.60265625 4.61328125 9.8828125 4.4140625 C8.51769531 4.02347656 8.51769531 4.02347656 7.125 3.625 C5.76761719 3.24214844 5.76761719 3.24214844 4.3828125 2.8515625 C2 2 2 2 0 0 Z " fill="#42607D" transform="translate(655,530)"/>
<path d="M0 0 C0.95003906 0.31710937 1.90007813 0.63421875 2.87890625 0.9609375 C7.52591459 2.28865417 12.13026971 2.44952696 16.9375 2.625 C17.81212891 2.66367187 18.68675781 2.70234375 19.58789062 2.7421875 C21.72494631 2.8356107 23.86244294 2.91885398 26 3 C26 3.33 26 3.66 26 4 C22.41673499 4.05814085 18.83359162 4.09364357 15.25 4.125 C14.23421875 4.14175781 13.2184375 4.15851562 12.171875 4.17578125 C11.1921875 4.18222656 10.2125 4.18867187 9.203125 4.1953125 C7.85202637 4.21102295 7.85202637 4.21102295 6.47363281 4.22705078 C3.86073144 3.98721676 2.24335334 3.32312064 0 2 C0 1.34 0 0.68 0 0 Z " fill="#3C5B78" transform="translate(726,698)"/>
<path d="M0 0 C1.63812169 0.23889275 3.27620031 0.47808454 4.9140625 0.71875 C6.34308754 0.91142753 7.7759878 1.07677618 9.2109375 1.21875 C11.14824535 1.41457895 13.07584735 1.70142459 15 2 C15.33 2.66 15.66 3.32 16 4 C9.86946489 4.32712342 5.37330889 4.39366878 0 1 C0 0.67 0 0.34 0 0 Z " fill="#DEEEF7" transform="translate(832,646)"/>
<path d="M0 0 C2.72092615 5.02324827 4.69795076 10.44458991 6 16 C4.68 15.67 3.36 15.34 2 15 C0.53329887 9.77487721 -0.22577402 5.4185766 0 0 Z " fill="#4A6682" transform="translate(966,530)"/>
<path d="M0 0 C3.3 0.33 6.6 0.66 10 1 C9 4 9 4 7.375 4.8125 C3.97771623 5.08070661 1.2085354 4.04894427 -2 3 C-1.34 2.01 -0.68 1.02 0 0 Z " fill="#456586" transform="translate(1069,426)"/>
<path d="M0 0 C9.59453303 1.74259681 9.59453303 1.74259681 13 5 C9.29218328 6.23593891 8.32489747 5.5678132 4.8125 4.0625 C3.91144531 3.68222656 3.01039063 3.30195312 2.08203125 2.91015625 C1.39496094 2.60980469 0.70789063 2.30945313 0 2 C0 1.34 0 0.68 0 0 Z " fill="#43607E" transform="translate(623,517)"/>
<path d="M0 0 C1.00289062 0.28746094 2.00578125 0.57492187 3.0390625 0.87109375 C3.80992187 1.09925781 4.58078125 1.32742188 5.375 1.5625 C5.045 2.5525 4.715 3.5425 4.375 4.5625 C2.74776701 4.11215877 1.12326336 3.65194646 -0.5 3.1875 C-1.40492188 2.93226563 -2.30984375 2.67703125 -3.2421875 2.4140625 C-5.625 1.5625 -5.625 1.5625 -7.625 -0.4375 C-4.72405209 -1.88797396 -3.06527404 -0.89106803 0 0 Z " fill="#456584" transform="translate(712.625,490.4375)"/>
<path d="M0 0 C1.45792884 -0.05399736 2.91642712 -0.09279177 4.375 -0.125 C5.18710937 -0.14820313 5.99921875 -0.17140625 6.8359375 -0.1953125 C9 0 9 0 11 2 C13.06874034 2.6425235 13.06874034 2.6425235 15 3 C15 3.99 15 4.98 15 6 C10 4.33333333 5 2.66666667 0 1 C0 0.67 0 0.34 0 0 Z " fill="#4A6B88" transform="translate(612,454)"/>
<path d="M0 0 C0.66 0.33 1.32 0.66 2 1 C1.71640113 2.4391134 1.42278601 3.87625518 1.125 5.3125 C0.88136719 6.51326172 0.88136719 6.51326172 0.6328125 7.73828125 C0 10 0 10 -2 13 C-3.45295405 4.80743982 -3.45295405 4.80743982 -1.5625 1.4375 C-1.046875 0.963125 -0.53125 0.48875 0 0 Z " fill="#405D7E" transform="translate(829,440)"/>
<path d="M0 0 C2 1 2 1 2.6875 3 C3.11389971 7.09343723 2.57491832 10.94019216 2 15 C1.34 15 0.68 15 0 15 C0 10.05 0 5.1 0 0 Z " fill="#3A5573" transform="translate(947,634)"/>
<path d="M0 0 C-0.33 0.66 -0.66 1.32 -1 2 C-1.99 2.33 -2.98 2.66 -4 3 C-4 3.66 -4 4.32 -4 5 C-5.32 4.34 -6.64 3.68 -8 3 C-7.34 2.01 -6.68 1.02 -6 0 C-6.66 0 -7.32 0 -8 0 C-8.33 0.66 -8.66 1.32 -9 2 C-9 1.01 -9 0.02 -9 -1 C-5.79937313 -2.60031344 -3.27728194 -1.03173691 0 0 Z " fill="#456889" transform="translate(637,599)"/>
<path d="M0 0 C-2.85695684 2.85695684 -4.99783516 2.68236787 -9 3 C-12.0219086 2.79853943 -15.00435917 2.44153436 -18 2 C-18 1.67 -18 1.34 -18 1 C-17.24074219 0.93941406 -16.48148438 0.87882813 -15.69921875 0.81640625 C-14.70535156 0.73261719 -13.71148438 0.64882813 -12.6875 0.5625 C-11.70136719 0.48128906 -10.71523437 0.40007813 -9.69921875 0.31640625 C-1.91911765 -0.59558824 -1.91911765 -0.59558824 0 0 Z " fill="#455F80" transform="translate(1073,554)"/>
<path d="M0 0 C1.60517097 0.08733576 3.20921662 0.19552224 4.8125 0.3125 C6.15248047 0.39951172 6.15248047 0.39951172 7.51953125 0.48828125 C10.30604 1.06313581 11.24135754 1.8206856 13 4 C9.29218328 5.23593891 8.32489747 4.5678132 4.8125 3.0625 C3.91144531 2.68222656 3.01039063 2.30195313 2.08203125 1.91015625 C1.39496094 1.60980469 0.70789063 1.30945313 0 1 C0 0.67 0 0.34 0 0 Z " fill="#4B6685" transform="translate(718,495)"/>
<path d="M0 0 C4.21912747 0.4794463 6.79663178 1.16625119 10 4 C8.68 4.33 7.36 4.66 6 5 C6.33 5.66 6.66 6.32 7 7 C4.13302508 5.71480435 2.02392288 4.42870746 0 2 C0 1.34 0 0.68 0 0 Z " fill="#36577B" transform="translate(645,462)"/>
<path d="M0 0 C-1.485 2.475 -1.485 2.475 -3 5 C-7.875 3.25 -7.875 3.25 -9 1 C-6.04335481 -0.4783226 -3.25770263 -0.06032783 0 0 Z " fill="#3D5F81" transform="translate(700,450)"/>
<path d="M0 0 C0.33 0.66 0.66 1.32 1 2 C-2.96 3.32 -6.92 4.64 -11 6 C-11 5.34 -11 4.68 -11 4 C-10.34 4 -9.68 4 -9 4 C-9 3.34 -9 2.68 -9 2 C-5.5647952 -0.29013653 -4.014669 -0.17842973 0 0 Z " fill="#3F607F" transform="translate(668,401)"/>
<path d="M0 0 C1.98 0.66 3.96 1.32 6 2 C6 2.66 6 3.32 6 4 C4.35 4.66 2.7 5.32 1 6 C1 5.34 1 4.68 1 4 C0.01 3.67 -0.98 3.34 -2 3 C-1.34 2.01 -0.68 1.02 0 0 Z " fill="#36587C" transform="translate(675,537)"/>
<path d="M0 0 C4.62 1.65 9.24 3.3 14 5 C13.67 5.66 13.34 6.32 13 7 C11.01638562 6.41060025 9.03816459 5.80302211 7.0625 5.1875 C5.40927734 4.68283203 5.40927734 4.68283203 3.72265625 4.16796875 C2.82417969 3.78253906 1.92570313 3.39710938 1 3 C0.67 2.01 0.34 1.02 0 0 Z " fill="#3E5C7B" transform="translate(586,502)"/>
<path d="M0 0 C0.99 0 1.98 0 3 0 C3 0.99 3 1.98 3 3 C4.32 3.33 5.64 3.66 7 4 C3.625 4.625 3.625 4.625 0 5 C-0.66 4.34 -1.32 3.68 -2 3 C-1.34 2.01 -0.68 1.02 0 0 Z " fill="#32577E" transform="translate(640,602)"/>
<path d="M0 0 C0.66 0.33 1.32 0.66 2 1 C1.67 1.66 1.34 2.32 1 3 C0.34 3 -0.32 3 -1 3 C-1 3.66 -1 4.32 -1 5 C-1.66 5 -2.32 5 -3 5 C-3 5.99 -3 6.98 -3 8 C-3.66 8 -4.32 8 -5 8 C-5 6.02 -5 4.04 -5 2 C-2.625 0.9375 -2.625 0.9375 0 0 Z " fill="#C6DAE5" transform="translate(582,577)"/>
<path d="M0 0 C2.31 1.98 4.62 3.96 7 6 C6.01 6.495 6.01 6.495 5 7 C4.67 7.99 4.34 8.98 4 10 C3.87625 9.360625 3.7525 8.72125 3.625 8.0625 C3.315625 7.0415625 3.315625 7.0415625 3 6 C2.34 5.67 1.68 5.34 1 5 C0.375 2.4375 0.375 2.4375 0 0 Z " fill="#E7F3F7" transform="translate(934,489)"/>
<path d="M0 0 C-0.33 0.33 -0.66 0.66 -1 1 C-0.01 1.66 0.98 2.32 2 3 C1.01 3 0.02 3 -1 3 C-1 3.66 -1 4.32 -1 5 C-3.475 4.01 -3.475 4.01 -6 3 C-6 2.01 -6 1.02 -6 0 C-3 -1 -3 -1 0 0 Z " fill="#395D81" transform="translate(677,474)"/>
<path d="M0 0 C-0.78375 0.598125 -1.5675 1.19625 -2.375 1.8125 C-5.14574323 3.91085249 -5.14574323 3.91085249 -7 7 C-7.66 6.67 -8.32 6.34 -9 6 C-8.39816251 3.97954558 -7.72693904 1.97888961 -7 0 C-4.3333581 -1.33332095 -2.83319697 -0.67102033 0 0 Z " fill="#EBF6FC" transform="translate(1003,453)"/>
<path d="M0 0 C2.64 0 5.28 0 8 0 C5.65085508 2.34914492 4.04320554 2.73140357 0.875 3.625 C-0.49011719 4.01558594 -0.49011719 4.01558594 -1.8828125 4.4140625 C-2.58148437 4.60742188 -3.28015625 4.80078125 -4 5 C-4 4.34 -4 3.68 -4 3 C-3.01 3 -2.02 3 -1 3 C-0.67 2.01 -0.34 1.02 0 0 Z " fill="#456280" transform="translate(676,396)"/>
<path d="M0 0 C0 0.66 0 1.32 0 2 C-5.61 1.67 -11.22 1.34 -17 1 C-17 0.67 -17 0.34 -17 0 C-14.54203147 -0.19436491 -12.08390706 -0.3807742 -9.625 -0.5625 C-8.92632813 -0.61857422 -8.22765625 -0.67464844 -7.5078125 -0.73242188 C-2.2265625 -1.11328125 -2.2265625 -1.11328125 0 0 Z " fill="#E4F3FC" transform="translate(1072,635)"/>
<path d="M0 0 C4.29 0.33 8.58 0.66 13 1 C9 4 9 4 6.5 3.875 C4 3 4 3 0 0 Z " fill="#CFE4EF" transform="translate(648,603)"/>
<path d="M0 0 C3.93673644 1.31224548 6.22719294 2.91910327 9 6 C8.67 6.66 8.34 7.32 8 8 C6.125 7.75 6.125 7.75 4 7 C2.875 5.125 2.875 5.125 2 3 C1.34 2.01 0.68 1.02 0 0 Z " fill="#DDEBF6" transform="translate(1078,578)"/>
<path d="M0 0 C0.33 1.65 0.66 3.3 1 5 C-2.3 4.01 -5.6 3.02 -9 2 C-9 1.67 -9 1.34 -9 1 C-2.25 0 -2.25 0 0 0 Z " fill="#406287" transform="translate(725,557)"/>
<path d="M0 0 C1.67542976 0.28604898 3.34385343 0.61781233 5 1 C2.3139714 2.79068573 0.3373411 3.66055791 -2.6875 4.625 C-3.49574219 4.88539063 -4.30398438 5.14578125 -5.13671875 5.4140625 C-5.75160156 5.60742188 -6.36648438 5.80078125 -7 6 C-7.33 5.34 -7.66 4.68 -8 4 C-6.865625 3.525625 -5.73125 3.05125 -4.5625 2.5625 C-1.24259834 1.36377917 -1.24259834 1.36377917 0 0 Z " fill="#436381" transform="translate(629,556)"/>
<path d="M0 0 C4.455 1.98 4.455 1.98 9 4 C8.01 5.485 8.01 5.485 7 7 C4.36 5.35 1.72 3.7 -1 2 C-0.67 1.34 -0.34 0.68 0 0 Z " fill="#E0EEF5" transform="translate(836,489)"/>
<path d="M0 0 C2.31 0 4.62 0 7 0 C6.67 0.66 6.34 1.32 6 2 C6.66 2 7.32 2 8 2 C7.67 2.99 7.34 3.98 7 5 C4.03824877 4.38722388 2.61941217 3.74627478 0 2 C0 1.34 0 0.68 0 0 Z " fill="#32577B" transform="translate(623,597)"/>
<path d="M0 0 C0.33 0.99 0.66 1.98 1 3 C-1 4 -1 4 -2.9453125 3.44140625 C-3.66460938 3.15136719 -4.38390625 2.86132812 -5.125 2.5625 C-5.84945312 2.27503906 -6.57390625 1.98757813 -7.3203125 1.69140625 C-8.15175781 1.34916016 -8.15175781 1.34916016 -9 1 C-5.64919071 -1.10976881 -3.77897651 -1.0497157 0 0 Z " fill="#DBE9EF" transform="translate(612,586)"/>
<path d="M0 0 C2 1 2 1 3.125 4.0625 C3.41375 5.031875 3.7025 6.00125 4 7 C1.69 6.34 -0.62 5.68 -3 5 C-2.01 3.35 -1.02 1.7 0 0 Z " fill="#436287" transform="translate(686,541)"/>
<path d="M0 0 C4.75 0.875 4.75 0.875 7 2 C7 2.99 7 3.98 7 5 C4.69 4.34 2.38 3.68 0 3 C0 2.01 0 1.02 0 0 Z " fill="#3D5F83" transform="translate(696,626)"/>
<path d="M0 0 C0.33 0 0.66 0 1 0 C1 4.29 1 8.58 1 13 C0.34 13 -0.32 13 -1 13 C-1.38218767 11.34385343 -1.71395102 9.67542976 -2 8 C-1.67 7.67 -1.34 7.34 -1 7 C-0.63239269 4.67182036 -0.29758419 2.3381615 0 0 Z " fill="#E5EEFB" transform="translate(1054,593)"/>
<path d="M0 0 C-0.33 0.66 -0.66 1.32 -1 2 C-3.28515625 2.4140625 -3.28515625 2.4140625 -6.0625 2.625 C-6.98160156 2.69976563 -7.90070312 2.77453125 -8.84765625 2.8515625 C-9.55792969 2.90054688 -10.26820313 2.94953125 -11 3 C-7.68381684 -0.31618316 -4.50821267 -1.6697084 0 0 Z " fill="#476583" transform="translate(688,596)"/>
<path d="M0 0 C-0.33 0.66 -0.66 1.32 -1 2 C-2.11375 1.95875 -3.2275 1.9175 -4.375 1.875 C-8.04366025 1.58878141 -8.04366025 1.58878141 -10 4 C-10.99 3.67 -11.98 3.34 -13 3 C-8.1942374 -0.17180332 -5.81427302 -1.70173845 0 0 Z " fill="#31567A" transform="translate(637,555)"/>
<path d="M0 0 C0.99 0.33 1.98 0.66 3 1 C3 2.65 3 4.3 3 6 C2.34 6 1.68 6 1 6 C1 6.99 1 7.98 1 9 C0.01 8.67 -0.98 8.34 -2 8 C-2 7.34 -2 6.68 -2 6 C-1.34 6 -0.68 6 0 6 C-0.2784375 4.7934375 -0.2784375 4.7934375 -0.5625 3.5625 C-0.706875 2.716875 -0.85125 1.87125 -1 1 C-0.67 0.67 -0.34 0.34 0 0 Z " fill="#406587" transform="translate(860,464)"/>
<path d="M0 0 C0 0.99 0 1.98 0 3 C-0.78375 3.309375 -1.5675 3.61875 -2.375 3.9375 C-4.92330128 4.92875038 -4.92330128 4.92875038 -7 6 C-8.32 5.34 -9.64 4.68 -11 4 C-7.37 2.68 -3.74 1.36 0 0 Z " fill="#DAE9F2" transform="translate(710,386)"/>
<path d="M0 0 C0.99 0.33 1.98 0.66 3 1 C3.33 2.98 3.66 4.96 4 7 C2.68 7 1.36 7 0 7 C-1.125 2.25 -1.125 2.25 0 0 Z " fill="#415F7F" transform="translate(1090,617)"/>
<path d="M0 0 C0 1.32 0 2.64 0 4 C-1.98 4.66 -3.96 5.32 -6 6 C-5.67 4.35 -5.34 2.7 -5 1 C-2 0 -2 0 0 0 Z " fill="#335676" transform="translate(1070,597)"/>
<path d="M0 0 C3.3 0.99 6.6 1.98 10 3 C9.67 3.66 9.34 4.32 9 5 C5.65626525 4.44271087 2.96687001 3.64826111 0 2 C0 1.34 0 0.68 0 0 Z " fill="#DEECF6" transform="translate(681,545)"/>
<path d="M0 0 C2.97 0.33 5.94 0.66 9 1 C9.33 1.99 9.66 2.98 10 4 C6.44219804 3.39009109 3.3171411 2.4216319 0 1 C0 0.67 0 0.34 0 0 Z " fill="#486583" transform="translate(695,486)"/>
<path d="M0 0 C0 2.62113708 -0.31292445 4.50935112 -1 7 C-2.98 7.33 -4.96 7.66 -7 8 C-6.02133662 6.85373678 -5.04205413 5.70800212 -4.0625 4.5625 C-3.51722656 3.92441406 -2.97195313 3.28632813 -2.41015625 2.62890625 C-1.63204305 1.73008851 -0.84063472 0.84063472 0 0 Z " fill="#385775" transform="translate(1209,446)"/>
<path d="M0 0 C0 0.99 0 1.98 0 3 C-3.08809695 4.76462683 -4.23312136 5 -8 5 C-8 4.34 -8 3.68 -8 3 C-5.36 2.01 -2.72 1.02 0 0 Z " fill="#4F6A88" transform="translate(732,435)"/>
<path d="M0 0 C-1.47692308 4.67692308 -1.47692308 4.67692308 -4.125 6.3125 C-5.053125 6.6528125 -5.053125 6.6528125 -6 7 C-6 4 -6 4 -4.125 1.8125 C-2 0 -2 0 0 0 Z " fill="#DAECF6" transform="translate(1018,642)"/>
<path d="M0 0 C2.31 0.66 4.62 1.32 7 2 C7 2.33 7 2.66 7 3 C5.8553125 3.2165625 5.8553125 3.2165625 4.6875 3.4375 C1.91827092 3.9632594 1.91827092 3.9632594 -1 5 C-0.67 3.35 -0.34 1.7 0 0 Z " fill="#426383" transform="translate(582,642)"/>
<path d="M0 0 C0.66 0 1.32 0 2 0 C2.33 1.32 2.66 2.64 3 4 C2.34 4 1.68 4 1 4 C0.67 4.99 0.34 5.98 0 7 C-0.99 6.67 -1.98 6.34 -3 6 C-2.01 4.02 -1.02 2.04 0 0 Z " fill="#43607F" transform="translate(1090,639)"/>
<path d="M0 0 C-0.33 0.99 -0.66 1.98 -1 3 C-3.875 3.625 -3.875 3.625 -7 4 C-7.66 3.34 -8.32 2.68 -9 2 C-3.375 0 -3.375 0 0 0 Z " fill="#DCE9F3" transform="translate(624,562)"/>
<path d="M0 0 C-0.33 1.32 -0.66 2.64 -1 4 C-3.31 3.67 -5.62 3.34 -8 3 C-3.5 0 -3.5 0 0 0 Z " fill="#D5E3EE" transform="translate(667,545)"/>
<path d="M0 0 C3.3 0.33 6.6 0.66 10 1 C10 1.99 10 2.98 10 4 C6.7 3.01 3.4 2.02 0 1 C0 0.67 0 0.34 0 0 Z " fill="#456380" transform="translate(736,502)"/>
<path d="M0 0 C0.33 0 0.66 0 1 0 C1.309375 1.11375 1.61875 2.2275 1.9375 3.375 C2.82326483 6.7945155 2.82326483 6.7945155 4 9 C3.67 9.66 3.34 10.32 3 11 C2.01 10.67 1.02 10.34 0 10 C0 6.7 0 3.4 0 0 Z " fill="#375472" transform="translate(857,459)"/>
<path d="M0 0 C-2.31 1.65 -4.62 3.3 -7 5 C-7.99 4.01 -8.98 3.02 -10 2 C-8.71211992 1.46987262 -7.41953322 0.9511671 -6.125 0.4375 C-5.40570312 0.14746094 -4.68640625 -0.14257812 -3.9453125 -0.44140625 C-2 -1 -2 -1 0 0 Z " fill="#DAE9F1" transform="translate(619,423)"/>
<path d="M0 0 C1.8871875 0.0309375 1.8871875 0.0309375 3.8125 0.0625 C-0.45933797 2.91039198 -4.11111053 3.0625 -9.1875 3.0625 C-6.30623588 0.18123588 -3.90053134 -0.06394314 0 0 Z " fill="#E6F5FA" transform="translate(732.1875,378.9375)"/>
<path d="M0 0 C0.66 0.66 1.32 1.32 2 2 C0.1875 4 0.1875 4 -2 6 C-2.99 6 -3.98 6 -5 6 C-3.63016497 2.83884224 -3.0109362 2.0072908 0 0 Z " fill="#3A5E82" transform="translate(1086,646)"/>
<path d="M0 0 C2.97 0.495 2.97 0.495 6 1 C6 2.65 6 4.3 6 6 C5.67 5.34 5.34 4.68 5 4 C3.35636866 3.27840576 1.68949614 2.60648579 0 2 C0 1.34 0 0.68 0 0 Z " fill="#426285" transform="translate(1080,577)"/>
<path d="M0 0 C3.875 1.75 3.875 1.75 5 4 C2.36 3.67 -0.28 3.34 -3 3 C-2.01 2.01 -1.02 1.02 0 0 Z " fill="#3B5B89" transform="translate(709,552)"/>
<path d="M0 0 C-2.40820361 2.40820361 -3.65022937 2.68097423 -7 3 C-9.3125 2.0625 -9.3125 2.0625 -11 1 C-6.92630576 -1.03684712 -4.41062136 -1.0257259 0 0 Z " fill="#D5E1EE" transform="translate(678,543)"/>
<path d="M0 0 C3.3 0.33 6.6 0.66 10 1 C10 1.99 10 2.98 10 4 C6.7 3.01 3.4 2.02 0 1 C0 0.67 0 0.34 0 0 Z " fill="#4C6D87" transform="translate(684,482)"/>
<path d="M0 0 C2.64 0.33 5.28 0.66 8 1 C8.33 2.32 8.66 3.64 9 5 C2.25 3.375 2.25 3.375 0 0 Z " fill="#456489" transform="translate(641,464)"/>
<path d="M0 0 C2.31 0 4.62 0 7 0 C3.7321794 2.17854707 0.61941735 3.49760034 -3 5 C-3 4.34 -3 3.68 -3 3 C-2.34 3 -1.68 3 -1 3 C-0.67 2.01 -0.34 1.02 0 0 Z " fill="#4D6B87" transform="translate(979,429)"/>
<path d="M0 0 C3.94727588 -0.17942163 6.5980513 -0.09350689 10 2 C10 2.66 10 3.32 10 4 C6.7 3.01 3.4 2.02 0 1 C0 0.67 0 0.34 0 0 Z " fill="#DAEBF4" transform="translate(640,664)"/>
<path d="M0 0 C2.64 0.99 5.28 1.98 8 3 C8 3.66 8 4.32 8 5 C5.03 4.01 2.06 3.02 -1 2 C-0.67 1.34 -0.34 0.68 0 0 Z " fill="#DBE9F5" transform="translate(628,594)"/>
<path d="M0 0 C0.66 0.33 1.32 0.66 2 1 C2.36923077 5.55384615 2.36923077 5.55384615 0.5 7.8125 C0.005 8.204375 -0.49 8.59625 -1 9 C-1.09765625 2.84765625 -1.09765625 2.84765625 -1 1 C-0.67 0.67 -0.34 0.34 0 0 Z " fill="#345778" transform="translate(1090,591)"/>
<path d="M0 0 C0.33 0 0.66 0 1 0 C1 3.63 1 7.26 1 11 C0.01 11.495 0.01 11.495 -1 12 C-1.66 11.34 -2.32 10.68 -3 10 C-2.34 10 -1.68 10 -1 10 C-0.67 6.7 -0.34 3.4 0 0 Z " fill="#D3E6F3" transform="translate(878,578)"/>
<path d="M0 0 C-2.98646769 1.99097846 -5.59687262 2.94124926 -9 4 C-9.33 3.34 -9.66 2.68 -10 2 C-6.5980513 -0.09350689 -3.94727588 -0.17942163 0 0 Z " fill="#E2F1F8" transform="translate(719,440)"/>
<path d="M0 0 C2.475 0.99 2.475 0.99 5 2 C5 2.99 5 3.98 5 5 C2.69 4.34 0.38 3.68 -2 3 C-1.34 2.01 -0.68 1.02 0 0 Z " fill="#E7F2F6" transform="translate(653,666)"/>
<path d="M0 0 C2.475 0.99 2.475 0.99 5 2 C4.67 2.99 4.34 3.98 4 5 C2.68 4.67 1.36 4.34 0 4 C0 2.68 0 1.36 0 0 Z " fill="#456480" transform="translate(965,647)"/>
<path d="M0 0 C1.98 0 3.96 0 6 0 C6.33 1.32 6.66 2.64 7 4 C4.69 3.34 2.38 2.68 0 2 C0 1.34 0 0.68 0 0 Z " fill="#486580" transform="translate(706,631)"/>
<path d="M0 0 C2.64 0 5.28 0 8 0 C5.4345406 2.5654594 3.52313332 2.54046087 0 3 C0 2.01 0 1.02 0 0 Z " fill="#415F7C" transform="translate(600,567)"/>
<path d="M0 0 C2.31 0.66 4.62 1.32 7 2 C6.67 2.99 6.34 3.98 6 5 C4.68 4.67 3.36 4.34 2 4 C2 3.34 2 2.68 2 2 C1.34 2 0.68 2 0 2 C0 1.34 0 0.68 0 0 Z " fill="#DEEAF2" transform="translate(697,551)"/>
<path d="M0 0 C2.31 0.66 4.62 1.32 7 2 C4.66785852 3.20628008 2.50357861 4.1654738 0 5 C-0.33 4.01 -0.66 3.02 -1 2 C-0.67 1.34 -0.34 0.68 0 0 Z " fill="#3F6484" transform="translate(844,496)"/>
<path d="M0 0 C2.97 0.33 5.94 0.66 9 1 C9.33 1.99 9.66 2.98 10 4 C6.7 3.01 3.4 2.02 0 1 C0 0.67 0 0.34 0 0 Z " fill="#496782" transform="translate(656,471)"/>
<path d="M0 0 C0 0.99 0 1.98 0 3 C-1.32 3 -2.64 3 -4 3 C-4.33 3.99 -4.66 4.98 -5 6 C-5.33 5.34 -5.66 4.68 -6 4 C-6.66 3.67 -7.32 3.34 -8 3 C-5.36 2.01 -2.72 1.02 0 0 Z " fill="#DCE8F1" transform="translate(589,433)"/>
<path d="M0 0 C2.31 0.33 4.62 0.66 7 1 C6.67 2.65 6.34 4.3 6 6 C3.97945196 4.35830472 1.97956942 2.69088222 0 1 C0 0.67 0 0.34 0 0 Z " fill="#3D5E7F" transform="translate(1080,433)"/>
<path d="M0 0 C0.66 0.33 1.32 0.66 2 1 C0.9375 2.5 0.9375 2.5 -1 4 C-4.6875 4.1875 -4.6875 4.1875 -8 4 C-5.31143836 2.20762558 -3.0466145 1.01553817 0 0 Z " fill="#DBECF3" transform="translate(607,426)"/>
</svg>
