<svg width="124" height="48" viewBox="0 0 124 48" fill="none" xmlns="http://www.w3.org/2000/svg">
<path fill-rule="evenodd" clip-rule="evenodd" d="M12 16.2694L23.4917 9.00003L34.9834 16.2694L30.4131 19.1603C28.6704 17.3791 26.2138 16.2693 23.4917 16.2693C20.7695 16.2693 18.3129 17.3791 16.5702 19.1603L12 16.2694Z" fill="#1E40AF"/>
<path fill-rule="evenodd" clip-rule="evenodd" d="M12.8572 25.6154C12.8572 19.8801 17.6184 15.2308 23.4916 15.2308C29.3649 15.2308 34.1261 19.8801 34.1261 25.6154C34.1261 31.3506 29.3649 36 23.4916 36C17.6184 36 12.8572 31.3506 12.8572 25.6154ZM59.882 15.2308C56.8501 15.2308 54.658 16.5972 53.4453 18.2369C52.2325 16.5972 50.1337 15.2308 47.5684 15.2308C42.7175 15.2308 40.0589 17.7814 38.3799 21.4252V36H43.2306V24.1671C43.2306 21.3433 44.9563 19.3847 47.3351 19.3847C49.7139 19.3847 50.9265 21.3436 50.9265 24.1671V36H55.7773V24.1671C55.7773 21.3433 57.1767 19.3847 59.6021 19.3847C61.9341 19.3847 63.4734 21.3436 63.4734 24.1671V36H68.3241V24.0667C68.3241 18.6467 64.7793 15.2308 59.882 15.2308ZM101.272 31.8461L111.58 18.7379V15.2308H96.2814V19.3847H105.703L95.3953 32.4474V36H112V31.8461H101.272ZM87.177 15.2308V26.7996C87.177 29.6231 85.218 31.582 82.3262 31.582C79.3876 31.582 77.4288 29.6235 77.4288 26.7996V15.2308H72.5779V27.1639C72.5779 32.5836 76.5425 36 82.3262 36C88.0632 36 92.0277 32.584 92.0277 27.1639V15.2308H87.177ZM17.111 25.6154C17.111 22.1743 19.9676 19.3847 23.4916 19.3847C27.0156 19.3847 29.8723 22.1743 29.8723 25.6154C29.8723 29.0566 27.0156 31.8461 23.4916 31.8461C19.9676 31.8461 17.111 29.0566 17.111 25.6154Z" fill="#3B82F6"/>
<path fill-rule="evenodd" clip-rule="evenodd" d="M29.8722 17.3073V18.65C28.1788 17.1698 25.943 16.2694 23.4915 16.2694C21.0401 16.2694 18.8043 17.1698 17.111 18.65V17.3073C18.8883 16.0036 21.0975 15.2309 23.4915 15.2309C25.8856 15.2309 28.0948 16.0036 29.8722 17.3073Z" fill="white"/>
</svg>
