<svg width="124" height="48" viewBox="0 0 124 48" fill="none" xmlns="http://www.w3.org/2000/svg">
<path fill-rule="evenodd" clip-rule="evenodd" d="M11.9231 16.2693L23.4147 8.99998L34.9064 16.2693L31.2426 18.5869L29.7954 17.9932V17.3072C28.018 16.0035 25.8088 15.2308 23.4147 15.2308C21.0207 15.2308 18.8115 16.0035 17.0342 17.3072V17.9845L15.5869 18.5869L11.9231 16.2693Z" fill="white"/>
<path fill-rule="evenodd" clip-rule="evenodd" d="M12.7803 25.6154C12.7803 22.1971 14.4718 19.165 17.0818 17.2726L17.0341 17.3072V18.6498C18.7275 17.1697 20.9633 16.2693 23.4147 16.2693C25.8662 16.2693 28.102 17.1697 29.7954 18.6498V17.3072L29.7477 17.2726C32.3579 19.1649 34.0492 22.1971 34.0492 25.6154C34.0492 31.3506 29.288 36 23.4147 36C17.5415 36 12.7803 31.3506 12.7803 25.6154ZM59.8051 15.2308C56.7732 15.2308 54.5811 16.5972 53.3684 18.2369C52.1556 16.5972 50.0568 15.2308 47.4915 15.2308C42.6406 15.2308 39.982 17.7814 38.303 21.4252V36H43.1537V24.1671C43.1537 21.3433 44.8794 19.3847 47.2582 19.3847C49.637 19.3847 50.8496 21.3436 50.8496 24.1671V36H55.7004V24.1671C55.7004 21.3433 57.0998 19.3847 59.5252 19.3847C61.8572 19.3847 63.3965 21.3436 63.3965 24.1671V36H68.2472V24.0667C68.2472 18.6467 64.7023 15.2308 59.8051 15.2308ZM101.195 31.8461L111.503 18.7379V15.2308H96.2045V19.3847H105.626L95.3184 32.4474V36H111.923V31.8461H101.195ZM87.1001 15.2308V26.7996C87.1001 29.6231 85.1411 31.582 82.2493 31.582C79.3107 31.582 77.3519 29.6235 77.3519 26.7996V15.2308H72.5009V27.1639C72.5009 32.5836 76.4656 36 82.2493 36C87.9863 36 91.9508 32.584 91.9508 27.1639V15.2308H87.1001ZM17.0341 25.6154C17.0341 22.1743 19.8907 19.3847 23.4147 19.3847C26.9387 19.3847 29.7954 22.1743 29.7954 25.6154C29.7954 29.0566 26.9387 31.8461 23.4147 31.8461C19.8907 31.8461 17.0341 29.0566 17.0341 25.6154Z" fill="white"/>
</svg>
